<?xml version="1.0" encoding="utf-8" standalone="no"?>
<!DOCTYPE svg PUBLIC "-//W3C//DTD SVG 1.1//EN"
  "http://www.w3.org/Graphics/SVG/1.1/DTD/svg11.dtd">
<!-- Created with matplotlib (https://matplotlib.org/) -->
<svg height="360pt" version="1.1" viewBox="0 0 1080 360" width="1080pt" xmlns="http://www.w3.org/2000/svg" xmlns:xlink="http://www.w3.org/1999/xlink">
 <defs>
  <style type="text/css">
*{stroke-linecap:butt;stroke-linejoin:round;}
  </style>
 </defs>
 <g id="figure_1">
  <g id="patch_1">
   <path d="M 0 360 
L 1080 360 
L 1080 0 
L 0 0 
z
" style="fill:#ffffff;"/>
  </g>
  <g id="axes_1">
   <g id="patch_2">
    <path d="M 135 324 
L 972 324 
L 972 36 
L 135 36 
z
" style="fill:#ffffff;"/>
   </g>
   <g id="line2d_1">
    <path clip-path="url(#p9cf2ca732a)" d="M 258.194076 -1 
L 271.35 84.556416 
L 284.985 167.129166 
L 298.62 226.281318 
L 312.255 236.984551 
L 325.89 242.406761 
L 339.525 239.069599 
L 353.16 243.581269 
L 366.795 234.99883 
L 380.43 235.979869 
L 394.065 228.710681 
L 407.7 205.617953 
L 421.335 192.559293 
L 434.97 173.938559 
L 448.605 154.427182 
L 462.24 138.040344 
L 475.875 123.141339 
L 489.51 108.670361 
L 503.145 96.770038 
L 516.78 86.464678 
L 530.415 79.888759 
L 544.05 72.898607 
L 557.685 69.085929 
L 571.32 66.879474 
L 584.955 65.910831 
L 598.59 67.503051 
L 612.225 69.798947 
L 625.86 75.059101 
L 639.495 80.575554 
L 653.13 88.580059 
L 666.765 98.679391 
L 680.4 109.906482 
L 694.035 121.262116 
L 707.67 134.937081 
L 721.305 150.415217 
L 734.94 168.287359 
L 748.575 185.78351 
L 762.21 202.391527 
L 775.845 228.710681 
L 789.48 252.88463 
L 803.115 276.216283 
L 816.75 305.115163 
L 830.385 346.008161 
L 842.47708 361 
" style="fill:none;stroke:#0000ff;stroke-dasharray:1,3;stroke-dashoffset:0;stroke-width:3;"/>
   </g>
   <g id="line2d_2">
    <path clip-path="url(#p9cf2ca732a)" d="M 225.557112 -1 
L 228.93 20.972921 
L 236.7575 70.672752 
L 244.585 119.07204 
L 252.4125 165.532265 
L 260.24 211.053245 
L 268.0675 237.757288 
L 275.895 263.566438 
L 283.7225 273.621031 
L 291.55 273.621031 
L 299.3775 277.594729 
L 307.205 277.594729 
L 315.0325 280.471198 
L 322.86 276.227647 
L 330.6875 274.903972 
L 338.515 265.60061 
L 346.3425 257.139546 
L 354.17 256.297249 
L 361.9975 250.109282 
L 369.825 250.109282 
L 377.6525 251.572319 
L 385.48 242.868857 
L 393.3075 239.952124 
L 401.135 230.874738 
L 408.9625 218.767479 
L 416.79 206.77336 
L 424.6175 193.961103 
L 432.445 183.441707 
L 440.2725 172.738474 
L 448.1 162.699938 
L 455.9275 150.860686 
L 463.755 139.67224 
L 471.5825 131.817391 
L 479.41 122.665914 
L 487.2375 114.410307 
L 495.065 107.381478 
L 502.8925 101.899293 
L 510.72 97.477816 
L 518.5475 92.25622 
L 526.375 88.665221 
L 534.2025 85.719994 
L 542.03 83.600282 
L 549.8575 81.925356 
L 557.685 80.364133 
L 565.5125 79.888759 
L 573.34 80.462319 
L 581.1675 81.810974 
L 588.995 83.362493 
L 596.8225 85.775788 
L 604.65 89.207273 
L 612.4775 93.885551 
L 620.305 98.07343 
L 628.1325 102.582958 
L 635.96 108.57005 
L 643.7875 114.354866 
L 651.615 121.466054 
L 659.4425 128.112552 
L 667.27 137.013272 
L 675.0975 146.929324 
L 682.925 154.907592 
L 690.7525 165.343612 
L 698.58 176.131863 
L 706.4075 186.609732 
L 714.235 195.290809 
L 722.0625 203.829153 
L 729.89 213.969977 
L 737.7175 226.572753 
L 745.545 235.166873 
L 753.3725 248.695849 
L 761.2 265.60061 
L 769.0275 276.227647 
L 776.855 292.465317 
L 784.6825 327.791089 
L 792.51 327.791089 
L 800.3375 332.701731 
L 808.165 332.701731 
L 815.9925 344.695849 
L 823.541896 361 
" style="fill:none;stroke:#008000;stroke-dasharray:1,3;stroke-dashoffset:0;stroke-width:3;"/>
   </g>
   <g id="line2d_3">
    <path clip-path="url(#p9cf2ca732a)" d="M 213.23578 -1 
L 214.515 6.536164 
L 227.07 77.43654 
L 231.255 100.085908 
L 235.44 123.369109 
L 239.625 144.393091 
L 247.995 184.649554 
L 252.18 198.217152 
L 256.365 208.033881 
L 260.55 221.403282 
L 264.735 233.05981 
L 268.92 233.737748 
L 273.105 235.127619 
L 277.29 240.393091 
L 281.475 253.470187 
L 285.66 256.89888 
L 289.845 253.470187 
L 294.03 247.357955 
L 298.215 251.331653 
L 302.4 244.608017 
L 306.585 243.730253 
L 310.77 240.393091 
L 314.955 236.565426 
L 319.14 236.565426 
L 323.325 237.303361 
L 327.51 237.303361 
L 331.695 244.608017 
L 335.88 246.421011 
L 340.065 250.302162 
L 344.25 251.331653 
L 348.435 250.302162 
L 352.62 252.38721 
L 356.805 250.302162 
L 360.99 249.29748 
L 365.175 246.421011 
L 369.36 243.730253 
L 373.545 235.840324 
L 377.73 235.840324 
L 381.915 234.426892 
L 386.1 233.737748 
L 390.285 232.392719 
L 394.47 228.599899 
L 398.655 226.825492 
L 402.84 226.250417 
L 407.025 216.155049 
L 411.21 207.666546 
L 415.395 202.837255 
L 419.58 194.58945 
L 423.765 190.518681 
L 427.95 182.395368 
L 432.135 178.042565 
L 436.32 170.80214 
L 440.505 164.635014 
L 444.69 158.133738 
L 448.875 153.596351 
L 453.06 147.817203 
L 461.43 137.601275 
L 465.615 132.903117 
L 469.8 127.756448 
L 473.985 122.411725 
L 478.17 118.658017 
L 482.355 114.582218 
L 486.54 111.049409 
L 490.725 107.361693 
L 494.91 104.004237 
L 499.095 101.351538 
L 503.28 99.046283 
L 507.465 95.499721 
L 515.835 91.121894 
L 520.02 89.24335 
L 524.205 88.043338 
L 528.39 86.475239 
L 532.575 85.273536 
L 536.76 84.867721 
L 540.945 84.580253 
L 545.13 84.408719 
L 557.685 83.338424 
L 561.87 84.21895 
L 566.055 84.771678 
L 570.24 84.848495 
L 574.425 86.255963 
L 578.61 88.001853 
L 582.795 89.500446 
L 586.98 92.162559 
L 591.165 93.536514 
L 595.35 95.823594 
L 599.535 98.482684 
L 603.72 99.645007 
L 607.905 101.437295 
L 612.09 104.555649 
L 616.275 107.065885 
L 624.645 113.80508 
L 628.83 117.632745 
L 637.2 127.328283 
L 641.385 132.179065 
L 645.57 139.411241 
L 649.755 143.994119 
L 662.31 160.89888 
L 670.68 171.257798 
L 674.865 173.131923 
L 679.05 181.021852 
L 683.235 185.286089 
L 687.42 189.797759 
L 691.605 195.947625 
L 695.79 203.49384 
L 699.975 207.666546 
L 704.16 211.095239 
L 708.345 212.71456 
L 716.715 225.123531 
L 720.9 224.026302 
L 725.085 229.208556 
L 729.27 233.737748 
L 733.455 244.608017 
L 737.64 253.470187 
L 741.825 253.470187 
L 746.01 261.958689 
L 750.195 272.629133 
L 754.38 278.19636 
L 758.565 287.006315 
L 762.75 295.10112 
L 766.935 295.10112 
L 771.12 298.19085 
L 775.305 301.528012 
L 779.49 305.155714 
L 783.675 301.528012 
L 787.86 305.155714 
L 792.045 309.129412 
L 796.23 313.522131 
L 800.415 330.426892 
L 804.6 338.028291 
L 808.785 324 
L 812.97 324 
L 817.155 318.432773 
L 821.34 309.129412 
L 825.525 309.129412 
L 829.71 305.155714 
L 833.895 305.155714 
L 838.08 318.432773 
L 842.265 324 
L 846.45 324 
L 850.635 318.432773 
L 854.82 313.522131 
L 859.005 318.432773 
L 863.19 318.432773 
L 867.375 309.129412 
L 871.56 309.129412 
L 875.745 318.432773 
L 879.93 338.028291 
L 884.115 359.325771 
L 888.3 359.325771 
L 892.485 338.028291 
L 896.67 347.331653 
L 905.04 347.331653 
L 909.225 330.426892 
L 913.41 324 
L 917.595 318.432773 
L 921.78 318.432773 
L 925.965 313.522131 
L 930.15 318.432773 
L 934.335 313.522131 
L 942.705 313.522131 
L 946.89 309.129412 
L 951.075 313.522131 
L 955.26 324 
L 959.445 318.432773 
L 963.63 318.432773 
L 967.815 330.426892 
L 972 338.028291 
L 976.185 347.331653 
L 976.185 347.331653 
" style="fill:none;stroke:#bf00bf;stroke-linecap:square;stroke-width:3;"/>
   </g>
   <g id="line2d_4">
    <path clip-path="url(#p9cf2ca732a)" d="M 217.238884 -1 
L 220.104362 12.14405 
L 225.777987 37.385729 
L 228.614799 49.717157 
L 234.288423 75.794102 
L 239.962047 100.160794 
L 242.798859 112.742076 
L 245.635671 126.996918 
L 248.472483 140.081861 
L 251.309295 152.23498 
L 254.146107 165.900728 
L 256.982919 178.318122 
L 265.493356 203.166024 
L 268.330168 211.704368 
L 271.16698 218.257792 
L 274.003792 223.951936 
L 279.677416 244.576946 
L 282.514228 248.969665 
L 285.35104 254.935864 
L 288.187852 261.900728 
L 291.024664 263.183668 
L 293.861477 261.900728 
L 296.698289 258.273026 
L 299.535101 264.507344 
L 302.371913 261.900728 
L 305.208725 259.447534 
L 308.045537 259.447534 
L 310.882349 254.935864 
L 313.719161 260.65609 
L 316.555973 256.018841 
L 319.392785 253.880307 
L 322.229597 254.935864 
L 325.066409 254.935864 
L 327.903221 258.273026 
L 330.740034 253.880307 
L 333.576846 256.018841 
L 336.413658 256.018841 
L 339.25047 253.880307 
L 342.087282 249.906609 
L 344.924094 247.156672 
L 347.760906 248.053314 
L 350.597718 240.603248 
L 353.43453 242.941745 
L 356.271342 241.368265 
L 359.108154 246.278907 
L 361.944966 247.156672 
L 364.781779 246.278907 
L 367.618591 246.278907 
L 370.455403 240.603248 
L 373.292215 239.852016 
L 376.129027 228.231821 
L 378.965839 224.981427 
L 381.802651 217.380028 
L 384.639463 217.380028 
L 387.476275 214.042866 
L 390.313087 211.32706 
L 393.149899 211.32706 
L 395.986711 205.385909 
L 398.823523 206.042494 
L 401.660336 198.496279 
L 404.497148 192.346414 
L 407.33396 184.944023 
L 410.170772 181.13386 
L 413.007584 176.001289 
L 418.681208 167.840253 
L 421.51802 164.41156 
L 424.354832 163.20997 
L 427.191644 159.150221 
L 430.028456 155.94552 
L 432.865268 150.71548 
L 435.702081 149.932911 
L 438.538893 146.542773 
L 441.375705 141.676273 
L 444.212517 138.611789 
L 447.049329 136.499526 
L 449.886141 133.606416 
L 452.722953 129.453124 
L 455.559765 126.160585 
L 458.396577 124.349664 
L 461.233389 121.293259 
L 464.070201 117.643893 
L 466.907013 115.477574 
L 469.743826 112.918963 
L 472.580638 111.353362 
L 475.41745 108.324652 
L 478.254262 107.011894 
L 481.091074 105.087756 
L 483.927886 102.579194 
L 486.764698 100.818622 
L 489.60151 98.900802 
L 492.438322 97.800943 
L 495.275134 95.497447 
L 498.111946 94.255555 
L 500.948758 92.199808 
L 503.78557 90.633518 
L 506.622383 88.705326 
L 512.296007 86.315651 
L 515.132819 85.261499 
L 523.643255 84.753271 
L 526.480067 83.772651 
L 529.316879 83.843196 
L 532.153691 82.987134 
L 534.990503 82.625563 
L 537.827315 81.375884 
L 540.664128 80.503319 
L 549.174564 79.969106 
L 554.848188 80.227264 
L 557.685 79.936949 
L 560.521812 80.4382 
L 563.358624 79.888759 
L 569.032248 80.96202 
L 571.86906 81.375884 
L 574.705872 82.539935 
L 577.542685 82.301108 
L 580.379497 83.00443 
L 583.216309 84.055551 
L 586.053121 84.144353 
L 588.889933 84.934071 
L 597.400369 88.864305 
L 600.237181 89.627848 
L 603.073993 91.536484 
L 605.910805 93.093637 
L 608.747617 93.91705 
L 611.58443 95.708073 
L 617.258054 98.447347 
L 620.094866 100.396418 
L 622.931678 102.193662 
L 625.76849 104.59124 
L 628.605302 106.068796 
L 634.278926 109.877376 
L 637.115738 111.115023 
L 639.95255 113.167873 
L 642.789362 114.767424 
L 645.626174 117.130873 
L 648.462987 120.054995 
L 651.299799 121.8166 
L 654.136611 123.839803 
L 656.973423 127.196165 
L 662.647047 132.970763 
L 665.483859 135.757211 
L 668.320671 140.21811 
L 671.157483 142.605188 
L 673.994295 144.755133 
L 676.831107 146.463435 
L 679.667919 148.660414 
L 682.504732 150.019142 
L 685.341544 152.326111 
L 688.178356 156.850816 
L 691.015168 159.257814 
L 693.85198 164.778895 
L 696.688792 168.507344 
L 699.525604 173.654012 
L 702.362416 177.143614 
L 705.199228 178.148296 
L 708.03604 180.952194 
L 710.872852 182.805489 
L 713.709664 186.779187 
L 716.546477 191.872633 
L 719.383289 195.564625 
L 722.220101 201.058385 
L 725.056913 207.047175 
L 727.893725 209.490099 
L 730.730537 214.85245 
L 733.567349 214.445693 
L 736.404161 216.520363 
L 739.240973 221.484218 
L 742.077785 220.536626 
L 744.914597 223.951936 
L 747.751409 228.231821 
L 750.588221 236.286402 
L 753.425034 242.147583 
L 756.261846 246.278907 
L 761.93547 270.267145 
L 764.772282 270.267145 
L 767.609094 273.475825 
L 770.445906 287.171906 
L 773.282718 292.082548 
L 778.956342 287.171906 
L 784.629966 292.082548 
L 787.466779 294.773305 
L 790.303591 300.739504 
L 793.140403 311.678066 
L 795.977215 316.070785 
L 798.814027 326.548654 
L 801.650839 340.576946 
L 804.487651 349.880307 
L 807.324463 340.576946 
L 810.044802 361 
L 810.044802 361 
" style="fill:none;stroke:#ff0000;stroke-dasharray:1,3;stroke-dashoffset:0;stroke-width:3;"/>
   </g>
   <g id="line2d_5">
    <path clip-path="url(#p9cf2ca732a)" d="M 259.283818 -1 
L 264.228535 11.453167 
L 266.920796 18.801507 
L 272.305318 31.709299 
L 274.99758 38.397026 
L 277.689841 44.483897 
L 280.382102 51.465244 
L 285.766624 62.691648 
L 288.458885 69.497908 
L 291.151146 75.971404 
L 299.22793 96.728376 
L 301.920191 104.486293 
L 304.612452 110.41632 
L 307.304713 117.251963 
L 309.996975 122.162605 
L 312.689236 126.61527 
L 315.381497 130.270248 
L 318.073758 137.13601 
L 320.766019 141.758123 
L 323.45828 147.613879 
L 326.150541 153.848197 
L 328.842803 158.73483 
L 331.535064 162.342898 
L 334.227325 165.269873 
L 336.919586 170.657003 
L 339.611847 174.258574 
L 342.304108 177.17985 
L 344.996369 180.685466 
L 347.688631 188.286865 
L 350.380892 188.728057 
L 353.073153 191.954483 
L 355.765414 188.728057 
L 358.457675 190.54105 
L 361.149936 192.924114 
L 363.842197 194.422201 
L 366.534459 198.702086 
L 369.22672 193.916834 
L 371.918981 193.916834 
L 374.611242 195.976131 
L 377.303503 192.43648 
L 379.995764 187.850293 
L 382.688025 188.728057 
L 385.380287 187.850293 
L 388.072548 182.939651 
L 390.764809 175.856174 
L 393.45707 175.531719 
L 396.149331 172.12004 
L 398.841592 168.417954 
L 401.533854 165.778321 
L 404.226115 160.953027 
L 406.918376 159.387986 
L 409.610637 155.614251 
L 412.302898 154.820089 
L 414.995159 151.241581 
L 417.68742 148.788387 
L 420.379682 147.779654 
L 423.071943 145.359694 
L 428.456465 138.310518 
L 431.148726 135.24916 
L 433.840987 132.62764 
L 436.533248 131.940389 
L 439.22551 129.728079 
L 441.917771 128.14263 
L 444.610032 126.916299 
L 447.302293 126.118336 
L 449.994554 124.757628 
L 452.686815 121.538324 
L 455.379076 122.072848 
L 458.071338 120.749172 
L 460.763599 117.572674 
L 463.45586 114.92218 
L 466.148121 112.572698 
L 468.840382 111.794703 
L 471.532643 108.36601 
L 474.224904 105.437941 
L 476.917166 103.960385 
L 479.609427 101.755127 
L 482.301688 101.207976 
L 484.993949 98.933769 
L 487.68621 97.120776 
L 490.378471 96.002433 
L 493.070732 95.147664 
L 495.762994 94.866591 
L 501.147516 92.330775 
L 506.532038 89.940389 
L 509.224299 90.06503 
L 511.916561 88.513131 
L 514.608822 87.48364 
L 517.301083 86.901065 
L 519.993344 86.440796 
L 522.685605 86.364576 
L 525.377866 84.140461 
L 528.070127 84.2851 
L 530.762389 83.996321 
L 533.45465 83.036201 
L 536.146911 83.389228 
L 546.915955 83.424696 
L 549.608217 83.389228 
L 552.300478 82.200936 
L 554.992739 81.449703 
L 557.685 80.84497 
L 560.377261 79.888759 
L 563.069522 80.281776 
L 565.761783 80.911731 
L 568.454045 82.930873 
L 571.146306 83.673818 
L 573.838567 84.722054 
L 576.530828 84.832011 
L 579.223089 83.673818 
L 581.91535 84.068329 
L 584.607611 82.58169 
L 587.299873 82.755916 
L 589.992134 83.888543 
L 592.684395 84.685466 
L 595.376656 86.174634 
L 598.068917 86.098898 
L 600.761178 87.133119 
L 603.453439 88.473061 
L 606.145701 88.956455 
L 608.837962 90.948107 
L 611.530223 92.111687 
L 616.914745 95.954483 
L 619.607006 96.777224 
L 622.299268 97.31837 
L 624.991529 98.473077 
L 627.68379 99.923389 
L 630.376051 101.099403 
L 633.068312 100.991111 
L 635.760573 101.316834 
L 638.452834 102.14245 
L 641.145096 102.589556 
L 643.837357 102.365404 
L 649.221879 106.969791 
L 651.91414 109.082054 
L 657.298662 115.073513 
L 659.990924 117.492265 
L 662.683185 117.572674 
L 668.067707 120.749172 
L 670.759968 122.614313 
L 673.452229 122.252556 
L 676.14449 123.718809 
L 678.836752 125.432431 
L 681.529013 127.524956 
L 684.221274 129.086646 
L 686.913535 131.04133 
L 689.605796 132.168216 
L 692.298057 132.743291 
L 694.990318 135.86867 
L 697.68258 138.046642 
L 700.374841 141.902138 
L 703.067102 141.902138 
L 705.759363 145.674354 
L 708.451624 151.061485 
L 711.143885 153.848197 
L 713.836146 156.423835 
L 716.528408 154.428609 
L 719.220669 159.169128 
L 721.91293 160.953027 
L 724.605191 162.108011 
L 727.297452 163.055603 
L 729.989713 164.51864 
L 732.681975 170.085867 
L 735.374236 173.946271 
L 738.066497 175.856174 
L 740.758758 181.052801 
L 743.451019 180.321339 
L 746.14328 182.174634 
L 748.835541 184.513131 
L 751.527803 188.286865 
L 754.220064 189.173968 
L 756.912325 191.954483 
L 759.604586 199.844412 
L 762.296847 204.108649 
L 764.989108 206.078729 
L 767.681369 206.078729 
L 770.373631 215.047211 
L 773.065892 218.523579 
L 775.758153 221.33536 
L 778.450414 224.350572 
L 783.834936 240.73741 
L 786.527197 245.648052 
L 789.219459 242.31089 
L 791.91172 242.31089 
L 794.603981 245.648052 
L 797.296242 247.422459 
L 799.988503 240.73741 
L 802.680764 242.31089 
L 805.373025 247.422459 
L 808.065287 255.387986 
L 810.757548 247.422459 
L 813.449809 245.648052 
L 816.14207 253.249452 
L 818.834331 257.642171 
L 821.526592 268.12004 
L 824.218854 274.546932 
L 826.911115 291.451693 
L 829.603376 320.350572 
L 832.295637 303.445811 
L 834.987898 282.148331 
L 837.680159 274.546932 
L 840.37242 278.174634 
L 843.064682 286.54105 
L 845.756943 274.546932 
L 848.449204 274.546932 
L 851.141465 282.148331 
L 853.833726 286.54105 
L 856.525987 286.54105 
L 859.218248 282.148331 
L 861.91051 291.451693 
L 864.602771 303.445811 
L 867.295032 320.350572 
L 869.987293 332.344691 
L 872.679554 320.350572 
L 875.371815 332.344691 
L 877.056126 361 
M 879.072027 361 
L 880.756338 332.344691 
L 883.448599 332.344691 
L 886.14086 320.350572 
L 891.525382 320.350572 
L 894.217643 311.047211 
L 896.909904 332.344691 
L 899.602166 320.350572 
L 902.294427 332.344691 
L 904.986688 349.249452 
L 907.678949 332.344691 
L 910.37121 349.249452 
L 915.755732 349.249452 
L 918.447994 332.344691 
L 926.524777 332.344691 
L 929.217038 320.350572 
L 931.909299 332.344691 
L 934.601561 332.344691 
L 937.293822 311.047211 
L 939.986083 320.350572 
L 942.678344 311.047211 
L 948.062866 311.047211 
L 950.755127 320.350572 
L 953.447389 332.344691 
L 956.13965 332.344691 
L 958.831911 349.249452 
L 959.926609 361 
L 959.926609 361 
" style="fill:none;stroke:#00bfbf;stroke-dasharray:1,3;stroke-dashoffset:0;stroke-width:3;"/>
   </g>
   <g id="line2d_6">
    <path clip-path="url(#p9cf2ca732a)" d="M 263.366403 -1 
L 269.490682 14.567095 
L 272.446521 21.314371 
L 275.40236 28.86166 
L 281.314038 42.471971 
L 282.791958 45.477126 
L 287.225717 55.703198 
L 288.703636 59.727314 
L 290.181556 62.771627 
L 291.659476 67.518902 
L 293.137395 70.701694 
L 294.615315 74.759327 
L 296.093234 78.321731 
L 297.571154 81.006897 
L 299.049073 85.439399 
L 300.526993 87.618103 
L 302.004913 91.805527 
L 303.482832 95.352514 
L 306.438671 104.278946 
L 307.916591 107.755315 
L 309.39451 113.128774 
L 310.87243 114.973283 
L 312.35035 117.471404 
L 313.828269 119.749434 
L 315.306189 123.459613 
L 316.784108 125.925318 
L 318.262028 127.898223 
L 319.739948 132.250148 
L 321.217867 136.091537 
L 322.695787 138.864344 
L 324.173706 141.198247 
L 325.651626 147.018923 
L 327.129545 150.343981 
L 330.085385 156.431379 
L 331.563304 162.28569 
L 333.041224 166.469425 
L 334.519143 167.882857 
L 335.997063 170.605575 
L 337.474983 175.772786 
L 340.430822 181.010428 
L 341.908741 182.685041 
L 343.386661 182.685041 
L 346.3425 188.546222 
L 347.82042 192.677547 
L 349.298339 193.555311 
L 352.254178 204.671666 
L 353.732098 207.672404 
L 355.210017 205.846173 
L 356.687937 205.846173 
L 358.165857 207.672404 
L 359.643776 204.671666 
L 362.599615 205.846173 
L 364.077535 210.238892 
L 365.555455 209.582308 
L 367.033374 205.846173 
L 368.511294 206.446073 
L 369.989213 205.846173 
L 371.467133 202.969704 
L 372.945052 197.751368 
L 374.422972 197.751368 
L 375.900892 198.244774 
L 377.378811 199.249455 
L 378.856731 198.244774 
L 380.33465 202.41748 
L 381.81257 205.254784 
L 383.29049 205.254784 
L 384.768409 203.52934 
L 386.246329 198.244774 
L 387.724248 196.781737 
L 389.202168 192.677547 
L 390.680087 189.743212 
L 392.158007 185.51272 
L 395.113846 182.007103 
L 396.591766 179.400488 
L 398.069685 177.547193 
L 399.547605 173.518601 
L 402.503444 170.862144 
L 403.981364 168.852489 
L 406.937203 163.346619 
L 408.415122 162.495727 
L 409.893042 163.132263 
L 411.370962 162.919002 
L 412.848881 160.441505 
L 414.326801 158.868025 
L 415.80472 156.431379 
L 417.28264 156.068835 
L 418.760559 151.947728 
L 420.238479 148.197582 
L 421.716399 145.872672 
L 423.194318 141.963264 
L 424.672238 140.695924 
L 426.150157 137.919436 
L 427.628077 136.767643 
L 429.105997 134.988503 
L 430.583916 135.426221 
L 432.061836 136.42822 
L 433.539755 134.126617 
L 435.017675 133.177826 
L 436.495594 130.650248 
L 437.973514 129.298991 
L 439.451434 126.012999 
L 440.929353 124.716762 
L 442.407273 123.957933 
L 443.885192 121.445102 
L 445.363112 120.820487 
L 446.841031 119.97664 
L 448.318951 120.358091 
L 449.796871 118.192742 
L 451.27479 116.412272 
L 454.230629 114.637865 
L 455.708549 112.74392 
L 457.186469 110.145044 
L 458.664388 109.07899 
L 460.142308 108.440683 
L 461.620227 107.585719 
L 463.098147 107.304583 
L 464.576066 106.747936 
L 466.053986 107.081032 
L 467.531906 105.926657 
L 469.009825 105.818365 
L 471.965664 103.300331 
L 473.443584 102.294437 
L 474.921503 99.461057 
L 476.399423 98.63362 
L 477.877343 97.378274 
L 479.355262 97.378274 
L 480.833182 96.720999 
L 482.311101 96.331551 
L 485.266941 96.374644 
L 488.22278 94.643374 
L 489.700699 93.260284 
L 492.656538 90.812807 
L 494.134458 89.916967 
L 495.612378 89.659265 
L 497.090297 89.184862 
L 498.568217 89.257497 
L 500.046136 89.148593 
L 501.524056 88.859564 
L 503.001976 88.358535 
L 504.479895 87.688056 
L 505.957815 86.108094 
L 507.435734 85.939912 
L 508.913654 85.505788 
L 510.391573 85.805853 
L 511.869493 85.60557 
L 513.347413 84.423662 
L 514.825332 84.069107 
L 516.303252 82.649255 
L 517.781171 81.850411 
L 519.259091 81.396407 
L 520.73701 80.768994 
L 522.21493 80.297224 
L 523.69285 80.768994 
L 525.170769 81.547193 
L 526.648689 81.698526 
L 529.604528 81.456656 
L 531.082448 81.577416 
L 532.560367 81.336245 
L 534.038287 80.414667 
L 535.516206 80.03418 
L 536.994126 79.888759 
L 538.472045 80.532442 
L 539.949965 80.739352 
L 541.427885 81.096461 
L 544.383724 82.370997 
L 545.861643 83.211407 
L 547.339563 82.835798 
L 548.817483 82.680288 
L 550.295402 82.773525 
L 551.773322 82.618246 
L 553.251241 82.094583 
L 554.729161 81.186219 
L 556.20708 82.063983 
L 557.685 81.850411 
L 560.640839 80.532442 
L 562.118759 80.858049 
L 563.596678 81.516992 
L 565.074598 80.887776 
L 566.552517 82.24792 
L 568.030437 83.179977 
L 569.508357 83.813129 
L 572.464196 83.463706 
L 573.942115 84.423662 
L 575.420035 84.87932 
L 576.897955 85.076137 
L 578.375874 86.108094 
L 579.853794 88.358535 
L 581.331713 89.221164 
L 582.809633 89.076147 
L 584.287552 89.549308 
L 587.243392 89.257497 
L 588.721311 88.572524 
L 590.199231 89.622581 
L 593.15507 90.176271 
L 594.63299 91.229922 
L 596.110909 92.115796 
L 597.588829 91.805527 
L 600.544668 92.822462 
L 602.022587 93.100544 
L 603.500507 94.027524 
L 604.978427 94.519474 
L 606.456346 94.684756 
L 607.934266 93.541312 
L 609.412185 93.340385 
L 610.890105 94.354845 
L 612.368024 94.975585 
L 613.845944 95.436741 
L 615.323864 97.555311 
L 616.801783 98.67916 
L 618.279703 100.733842 
L 619.757622 101.022039 
L 622.713462 102.693887 
L 624.191381 102.996006 
L 625.669301 103.658206 
L 627.14722 103.198642 
L 628.62514 104.540341 
L 631.580979 106.03523 
L 634.536818 109.54943 
L 636.014738 112.110287 
L 637.492657 112.680121 
L 638.970577 112.110287 
L 640.448497 113.128774 
L 641.926416 113.647503 
L 643.404336 114.973283 
L 644.882255 114.172767 
L 646.360175 113.517214 
L 647.838094 117.542979 
L 649.316014 119.825032 
L 650.793934 121.053622 
L 652.271853 122.480493 
L 653.749773 124.887282 
L 655.227692 126.810537 
L 659.661451 125.489658 
L 661.139371 125.750507 
L 662.61729 127.71496 
L 664.09521 129.489367 
L 667.051049 130.748463 
L 668.528969 132.866301 
L 670.006888 132.762974 
L 671.484808 132.04677 
L 672.962727 134.663204 
L 674.440647 134.663204 
L 675.918566 136.541054 
L 677.396486 136.203463 
L 678.874406 138.389214 
L 680.352325 139.831165 
L 681.830245 138.626102 
L 683.308164 139.103956 
L 684.786084 139.953609 
L 686.264003 142.092143 
L 687.741923 144.619721 
L 689.219843 146.014242 
L 690.697762 147.604087 
L 693.653601 151.138144 
L 695.131521 154.301949 
L 696.609441 155.35307 
L 698.08736 159.061493 
L 699.56528 160.042533 
L 701.043199 160.642432 
L 702.521119 160.844332 
L 703.999038 161.661854 
L 705.476958 162.919002 
L 706.954878 163.346619 
L 708.432797 166.008732 
L 709.910717 167.882857 
L 711.388636 169.345894 
L 712.866556 169.594804 
L 714.344476 171.120301 
L 715.822395 173.245208 
L 717.300315 176.063326 
L 718.778234 181.672224 
L 720.256154 184.074913 
L 721.734073 190.975585 
L 723.211993 191.394607 
L 724.689913 187.382641 
L 726.167832 188.154743 
L 727.645752 186.250655 
L 729.123671 187.766905 
L 730.601591 185.51272 
L 732.07951 185.148593 
L 733.55743 187.382641 
L 735.03535 188.546222 
L 736.513269 190.560733 
L 737.991189 197.263734 
L 739.469108 199.249455 
L 742.424948 210.905983 
L 743.902867 212.273065 
L 745.380787 215.900767 
L 746.858706 211.583921 
L 748.336626 212.273065 
L 749.814545 211.583921 
L 751.292465 210.238892 
L 752.770385 211.583921 
L 754.248304 210.905983 
L 755.726224 212.273065 
L 757.204143 218.239264 
L 758.682063 219.874465 
L 761.637902 221.576426 
L 763.115822 227.143653 
L 764.593741 233.570545 
L 766.071661 230.233383 
L 767.54958 235.953609 
L 769.0275 248.773344 
L 770.50542 256.042533 
L 773.461259 252.249713 
L 774.939178 254.103008 
L 776.417098 250.475306 
L 777.895017 245.564664 
L 779.372937 239.804863 
L 780.850857 247.138144 
L 782.328776 245.564664 
L 783.806696 245.564664 
L 785.284615 252.249713 
L 786.762535 256.042533 
L 788.240455 262.469425 
L 791.196294 262.469425 
L 792.674213 270.070824 
L 794.152133 270.070824 
L 795.630052 272.947294 
L 797.107972 283.001887 
L 798.585892 276.037023 
L 800.063811 279.374186 
L 803.01965 272.947294 
L 804.49757 276.037023 
L 805.97549 272.947294 
L 808.931329 279.374186 
L 810.409248 279.374186 
L 811.887168 286.975585 
L 817.798846 286.975585 
L 819.276766 291.368304 
L 820.754685 296.278946 
L 822.232605 301.846173 
L 823.710524 315.874465 
L 825.188444 325.177826 
L 827.020428 361 
M 829.268138 361 
L 829.622203 354.076706 
L 832.578042 354.076706 
L 832.932107 361 
M 836.657736 361 
L 837.011801 354.076706 
L 837.365865 361 
M 844.047334 361 
L 844.401399 354.076706 
L 851.790997 354.076706 
L 852.145061 361 
M 857.34861 361 
L 857.702675 354.076706 
L 863.614353 354.076706 
L 863.968418 361 
M 873.605726 361 
L 873.95979 354.076706 
L 874.313855 361 
M 892.81868 361 
L 893.172745 354.076706 
L 893.526809 361 
M 909.075795 361 
L 909.42986 354.076706 
L 909.783925 361 
M 914.987474 361 
L 915.341538 354.076706 
L 916.819458 337.171945 
L 918.297378 354.076706 
L 922.731136 354.076706 
L 923.085201 361 
M 941.590026 361 
L 941.944091 354.076706 
L 944.89993 354.076706 
L 945.253995 361 
L 945.253995 361 
" style="fill:none;stroke:#bf00bf;stroke-dasharray:1,3;stroke-dashoffset:0;stroke-width:3;"/>
   </g>
   <g id="line2d_7">
    <path clip-path="url(#p9cf2ca732a)" d="M 156.178005 361 
L 156.178372 321.157649 
L 157.060804 201.825996 
L 157.943236 139.784685 
L 158.825668 99.638029 
L 159.7081 74.385526 
L 161.472965 43.038256 
L 162.355397 17.58015 
L 162.871945 -1 
M 272.750291 -1 
L 274.42428 3.290336 
L 275.306712 5.657828 
L 276.189144 6.805243 
L 277.071576 8.282528 
L 277.954008 10.028995 
L 278.836441 11.095909 
L 279.718873 12.762068 
L 280.601305 13.705694 
L 281.483737 16.322433 
L 282.366169 17.810335 
L 284.131033 21.851892 
L 285.013466 23.2582 
L 285.895898 25.227485 
L 288.543194 29.411986 
L 289.425626 31.925275 
L 293.837787 42.46101 
L 294.720219 43.038256 
L 296.485084 45.965712 
L 298.249948 49.668202 
L 299.13238 51.439916 
L 300.014812 54.247187 
L 300.897244 55.653467 
L 301.779676 58.196692 
L 302.662109 59.784792 
L 303.544541 62.223632 
L 305.309405 65.805693 
L 306.191837 68.102982 
L 307.074269 68.88139 
L 307.956701 70.076949 
L 308.839134 70.585398 
L 309.721566 72.30868 
L 310.603998 74.441602 
L 312.368862 78.013228 
L 313.251294 80.990251 
L 314.133727 84.552347 
L 315.016159 86.304995 
L 315.898591 89.080366 
L 317.663455 93.712926 
L 318.545887 93.006261 
L 319.428319 94.887434 
L 320.310752 97.050089 
L 321.193184 97.243556 
L 322.075616 97.927853 
L 322.958048 100.57264 
L 323.84048 105.000379 
L 324.722912 107.527958 
L 325.605344 107.280525 
L 326.487777 108.532639 
L 327.370209 110.885806 
L 329.135073 113.379774 
L 330.017505 112.252888 
L 330.899937 114.980721 
L 331.78237 116.184914 
L 332.664802 117.740776 
L 334.429666 120.189167 
L 335.312098 123.330656 
L 336.19453 123.512322 
L 337.076962 125.373893 
L 337.959395 126.336806 
L 338.841827 128.536909 
L 339.724259 131.077325 
L 340.606691 130.85961 
L 341.489123 134.9638 
L 342.371555 136.926152 
L 343.253987 140.326151 
L 344.13642 141.711404 
L 346.783716 145.236793 
L 347.666148 147.439916 
L 348.54858 149.088046 
L 349.431013 150.109133 
L 350.313445 149.765984 
L 351.195877 154.463584 
L 352.078309 153.705522 
L 352.960741 152.593662 
L 353.843173 152.960998 
L 354.725605 157.641676 
L 355.608038 157.230912 
L 356.49047 156.421328 
L 357.372902 161.988555 
L 358.255334 161.082165 
L 360.020198 152.960998 
L 361.785063 156.824155 
L 362.667495 152.960998 
L 363.549927 154.847848 
L 364.432359 158.898825 
L 365.314791 161.532897 
L 366.197223 165.325717 
L 367.962088 169.498423 
L 368.84452 168.953419 
L 369.726952 172.335727 
L 370.609384 172.335727 
L 371.491816 171.177534 
L 372.374248 172.335727 
L 373.256681 176.663251 
L 374.139113 182.98171 
L 375.021545 181.492542 
L 375.903977 184.526045 
L 376.786409 183.746727 
L 377.668841 181.492542 
L 378.551273 185.320207 
L 379.433706 180.054735 
L 380.316138 182.230478 
L 381.19857 176.663251 
L 382.081002 177.986926 
L 382.963434 180.767441 
L 383.845866 173.527015 
L 384.728299 174.135673 
L 385.610731 170.610283 
L 386.493163 176.663251 
L 387.375595 173.527015 
L 388.258027 167.884327 
L 389.140459 170.050647 
L 390.905324 171.177534 
L 391.787756 167.359889 
L 392.670188 166.841966 
L 393.55262 170.610283 
L 394.435052 172.335727 
L 395.317484 171.177534 
L 396.199916 171.752609 
L 397.082349 168.415446 
L 397.964781 165.825031 
L 398.847213 165.825031 
L 399.729645 158.47555 
L 400.612077 159.75849 
L 401.494509 158.898825 
L 402.376942 160.195062 
L 403.259374 162.915088 
L 404.141806 158.056528 
L 405.024238 165.825031 
L 405.90667 161.532897 
L 406.789102 162.915088 
L 407.671534 161.082165 
L 408.553967 157.641676 
L 409.436399 157.641676 
L 410.318831 152.229536 
L 411.201263 154.08283 
L 412.083695 151.868561 
L 412.966127 151.155856 
L 413.848559 153.331598 
L 414.730992 154.463584 
L 415.613424 154.08283 
L 416.495856 154.08283 
L 417.378288 151.868561 
L 418.26072 148.091371 
L 419.143152 146.798484 
L 420.025585 144.327107 
L 420.908017 146.166771 
L 421.790449 142.853729 
L 422.672881 141.994064 
L 423.555313 142.5652 
L 424.437745 142.5652 
L 425.320177 142.278654 
L 426.20261 138.985448 
L 427.085042 137.431519 
L 427.967474 138.985448 
L 428.849906 139.250162 
L 429.732338 138.201244 
L 430.61477 136.675747 
L 432.379635 138.201244 
L 433.262067 137.943087 
L 434.144499 135.204102 
L 435.026931 131.959734 
L 435.909363 129.366633 
L 436.791795 127.522448 
L 437.674228 127.322485 
L 438.55666 124.432718 
L 439.439092 125.948968 
L 440.321524 126.142436 
L 441.203956 128.332032 
L 442.086388 130.213206 
L 444.733685 124.062118 
L 445.616117 122.434013 
L 446.498549 122.080687 
L 447.380981 118.541036 
L 448.263413 118.379751 
L 449.145846 121.382892 
L 450.028278 123.149778 
L 450.91071 124.619261 
L 451.793142 124.062118 
L 452.675574 123.878046 
L 453.558006 122.080687 
L 454.440438 119.687851 
L 455.322871 118.219087 
L 456.205303 118.541036 
L 457.087735 115.57847 
L 457.970167 116.337913 
L 458.852599 115.88059 
L 459.735031 113.954849 
L 460.617463 112.671909 
L 461.499896 111.020514 
L 462.382328 111.975862 
L 463.26476 109.173086 
L 464.147192 109.56213 
L 465.029624 108.659944 
L 465.912056 106.912108 
L 466.794489 105.588433 
L 467.676921 103.509163 
L 468.559353 103.735138 
L 469.441785 102.397303 
L 470.324217 103.060854 
L 471.206649 104.305492 
L 472.089081 104.535837 
L 472.971514 106.184899 
L 473.853946 107.280525 
L 474.736378 108.027272 
L 475.61881 106.184899 
L 476.501242 105.707045 
L 477.383674 103.962344 
L 478.266106 103.621997 
L 479.148539 101.101066 
L 480.030971 100.154668 
L 480.913403 100.57264 
L 481.795835 99.843917 
L 482.678267 100.67779 
L 483.560699 98.925323 
L 484.443132 99.638029 
L 485.325564 99.229278 
L 486.207996 99.026395 
L 487.090428 98.623568 
L 487.97286 98.523467 
L 488.855292 98.723911 
L 489.737724 97.927853 
L 490.620157 97.927853 
L 491.502589 97.14671 
L 492.385021 96.09599 
L 493.267453 95.627006 
L 494.149885 94.795903 
L 495.032317 96.190424 
L 496.797182 94.613442 
L 497.679614 96.00177 
L 498.562046 95.533839 
L 499.444478 94.795903 
L 500.32691 92.657369 
L 501.209342 91.797705 
L 502.091775 91.122511 
L 502.974207 89.320207 
L 503.856639 86.679591 
L 504.739071 86.156094 
L 505.621503 85.492542 
L 506.503935 85.639088 
L 507.386367 86.304995 
L 508.2688 86.081842 
L 509.151232 87.746727 
L 510.033664 88.369012 
L 510.916096 89.240107 
L 512.68096 87.90143 
L 513.563392 87.669591 
L 514.445825 85.492542 
L 515.328257 84.767441 
L 517.093121 84.695619 
L 517.975553 85.346509 
L 518.857985 85.128415 
L 519.740418 85.639088 
L 520.62285 85.273684 
L 521.505282 85.128415 
L 522.387714 84.480895 
L 523.270146 82.870414 
L 525.03501 83.076982 
L 525.917443 83.423553 
L 526.799875 81.852651 
L 528.564739 83.702899 
L 529.447171 82.801785 
L 530.329603 82.25678 
L 531.212035 82.25678 
L 532.094468 83.423553 
L 532.9769 82.054226 
L 533.859332 81.452402 
L 534.741764 82.25678 
L 536.506628 84.196305 
L 537.389061 82.528392 
L 538.271493 83.632887 
L 539.153925 84.196305 
L 540.918789 84.12546 
L 541.801221 82.392365 
L 542.683653 82.324517 
L 544.448518 81.852651 
L 545.33095 81.187689 
L 546.213382 80.274206 
L 547.095814 80.081037 
L 547.978246 81.518844 
L 548.860678 80.859143 
L 549.743111 79.888759 
L 551.507975 81.055959 
L 552.390407 82.733268 
L 553.272839 83.284579 
L 554.155271 83.423553 
L 555.037704 84.409565 
L 555.920136 84.98365 
L 556.802568 85.346509 
L 557.685 82.528392 
L 558.567432 81.319835 
L 559.449864 81.585392 
L 560.332296 83.076982 
L 561.214729 81.986926 
L 562.097161 82.733268 
L 562.979593 84.695619 
L 563.862025 85.712555 
L 564.744457 86.379645 
L 565.626889 84.839386 
L 566.509322 86.304995 
L 567.391754 85.565751 
L 568.274186 86.230478 
L 569.156618 85.786151 
L 570.03905 85.565751 
L 570.921482 85.933734 
L 571.803914 84.695619 
L 573.568779 84.480895 
L 574.451211 86.007722 
L 575.333643 87.286035 
L 576.216075 87.746727 
L 577.098507 87.669591 
L 577.980939 88.921235 
L 578.863372 88.134565 
L 580.628236 84.695619 
L 582.3931 86.230478 
L 583.275532 85.786151 
L 584.157965 87.057583 
L 585.040397 87.362464 
L 585.922829 88.056708 
L 586.805261 87.978997 
L 587.687693 88.290716 
L 588.570125 89.080366 
L 589.452557 86.830377 
L 590.33499 87.515745 
L 591.217422 89.000725 
L 592.099854 87.362464 
L 593.864718 89.16016 
L 594.74715 93.181807 
L 595.629582 94.160753 
L 596.512015 92.484013 
L 597.394447 94.070802 
L 598.276879 95.25558 
L 599.159311 94.887434 
L 600.041743 93.535134 
L 600.924175 94.613442 
L 601.806608 94.613442 
L 602.68904 94.160753 
L 603.571472 91.712705 
L 604.453904 91.797705 
L 605.336336 92.397604 
L 606.218768 90.048122 
L 607.1012 92.139446 
L 607.983633 93.623935 
L 608.866065 96.857514 
L 609.748497 97.829406 
L 610.630929 97.927853 
L 611.513361 99.229278 
L 612.395793 99.127713 
L 613.278225 99.740846 
L 614.160658 98.224596 
L 615.04309 97.927853 
L 615.925522 100.154668 
L 616.807954 102.838495 
L 617.690386 103.735138 
L 618.572818 103.396633 
L 619.455251 105.000379 
L 620.337683 103.962344 
L 621.220115 101.852298 
L 622.102547 101.101066 
L 622.984979 101.314326 
L 623.867411 102.727759 
L 624.749843 102.507164 
L 625.632276 104.767461 
L 626.514708 105.588433 
L 627.39714 107.034552 
L 628.279572 106.912108 
L 629.162004 106.912108 
L 630.044436 109.044207 
L 630.926868 109.173086 
L 631.809301 111.975862 
L 632.691733 111.563744 
L 633.574165 112.392094 
L 634.456597 113.66632 
L 635.339029 112.953615 
L 637.103894 111.020514 
L 637.986326 111.427271 
L 639.75119 114.099866 
L 640.633622 113.379774 
L 641.516054 116.184914 
L 642.398486 116.645607 
L 643.280919 116.337913 
L 644.163351 115.428228 
L 645.045783 114.980721 
L 645.928215 116.955588 
L 646.810647 116.337913 
L 647.693079 116.645607 
L 648.575511 118.379751 
L 649.457944 116.645607 
L 650.340376 115.88059 
L 651.222808 117.267891 
L 652.10524 118.219087 
L 652.987672 118.541036 
L 653.870104 120.357621 
L 654.752537 124.806643 
L 655.634969 128.128158 
L 657.399833 131.737375 
L 659.164697 127.925275 
L 660.047129 128.742797 
L 660.929562 127.522448 
L 661.811994 125.948968 
L 662.694426 126.728286 
L 663.576858 129.366633 
L 664.45929 129.366633 
L 665.341722 130.427562 
L 666.224154 129.157649 
L 669.753883 136.179405 
L 670.636315 135.933432 
L 671.518747 138.201244 
L 672.40118 138.722404 
L 673.283612 138.985448 
L 674.166044 138.201244 
L 675.048476 137.943087 
L 678.578205 144.327107 
L 679.460637 145.544486 
L 682.107933 150.455129 
L 682.990365 148.091371 
L 683.872797 147.117966 
L 684.75523 147.117966 
L 685.637662 150.109133 
L 686.520094 147.439916 
L 687.402526 146.481431 
L 688.284958 145.236793 
L 689.16739 145.544486 
L 690.049823 147.439916 
L 690.932255 147.764371 
L 691.814687 147.117966 
L 692.697119 149.765984 
L 693.579551 156.421328 
L 694.461983 156.824155 
L 695.344415 159.75849 
L 696.226848 157.230912 
L 697.10928 159.326442 
L 697.991712 156.824155 
L 698.874144 153.705522 
L 699.756576 157.230912 
L 700.639008 157.230912 
L 701.521441 159.75849 
L 702.403873 162.915088 
L 703.286305 164.344677 
L 704.168737 170.050647 
L 705.051169 168.415446 
L 705.933601 170.610283 
L 706.816033 173.527015 
L 707.698466 173.527015 
L 708.580898 179.354008 
L 711.228194 169.498423 
L 712.110626 171.752609 
L 712.993058 173.527015 
L 713.875491 170.610283 
L 714.757923 169.498423 
L 716.522787 177.319835 
L 717.405219 175.38031 
L 718.287651 175.38031 
L 719.170084 180.054735 
L 720.052516 186.129791 
L 720.934948 186.129791 
L 721.81738 185.320207 
L 722.699812 181.492542 
L 723.582244 183.746727 
L 725.347109 177.986926 
L 726.229541 179.354008 
L 727.111973 185.320207 
L 727.994405 189.535134 
L 728.876837 186.955408 
L 730.641701 190.431776 
L 731.524134 189.535134 
L 732.406566 184.526045 
L 733.288998 186.955408 
L 734.17143 191.348127 
L 735.053862 194.224596 
L 735.936294 195.229278 
L 736.818727 195.229278 
L 737.701159 196.258769 
L 738.583591 195.229278 
L 740.348455 186.129791 
L 741.230887 189.535134 
L 742.113319 191.348127 
L 742.995752 194.224596 
L 743.878184 201.825996 
L 744.760616 200.651488 
L 745.643048 205.56213 
L 746.52548 199.509163 
L 747.407912 198.397303 
L 748.290344 201.825996 
L 749.172777 200.651488 
L 750.937641 212.645607 
L 751.820073 205.56213 
L 752.702505 205.56213 
L 753.584937 200.651488 
L 754.46737 201.825996 
L 755.349802 201.825996 
L 756.232234 199.509163 
L 757.114666 211.129357 
L 757.997098 214.219087 
L 758.87953 223.123476 
L 759.761962 221.183951 
L 760.644395 227.296183 
L 761.526827 221.183951 
L 762.409259 215.854287 
L 763.291691 217.556249 
L 764.174123 212.645607 
L 765.938987 215.854287 
L 766.82142 221.183951 
L 767.703852 227.296183 
L 769.468716 237.151767 
L 771.23358 231.933432 
L 772.116013 237.151767 
L 772.998445 231.933432 
L 773.880877 237.151767 
L 774.763309 231.933432 
L 776.528173 231.933432 
L 777.410605 229.550368 
L 778.293038 234.46101 
L 779.17547 231.933432 
L 780.057902 246.455129 
L 780.940334 254.056528 
L 781.822766 258.449247 
L 782.705198 268.927116 
L 783.58763 282.955408 
L 784.470063 292.258769 
L 785.352495 282.955408 
L 786.234927 282.955408 
L 787.117359 304.252888 
L 787.999791 292.258769 
L 788.882223 268.927116 
L 790.647088 258.449247 
L 791.52952 250.08283 
L 792.411952 246.455129 
L 793.294384 246.455129 
L 794.176816 258.449247 
L 795.059248 250.08283 
L 795.941681 258.449247 
L 796.824113 258.449247 
L 797.706545 250.08283 
L 798.588977 250.08283 
L 799.471409 246.455129 
L 800.353841 263.359889 
L 801.236273 258.449247 
L 802.118706 263.359889 
L 803.001138 275.354008 
L 803.88357 282.955408 
L 804.766002 292.258769 
L 805.648434 292.258769 
L 806.530866 282.955408 
L 808.295731 282.955408 
L 809.178163 292.258769 
L 810.060595 292.258769 
L 810.943027 282.955408 
L 811.825459 292.258769 
L 812.707891 292.258769 
L 813.590324 282.955408 
L 815.355188 282.955408 
L 816.23762 275.354008 
L 818.002484 275.354008 
L 818.884916 282.955408 
L 819.767349 282.955408 
L 820.649781 275.354008 
L 821.532213 292.258769 
L 822.414645 292.258769 
L 823.297077 304.252888 
L 824.179509 321.157649 
L 825.061942 292.258769 
L 827.709238 292.258769 
L 828.59167 282.955408 
L 829.474102 263.359889 
L 830.356534 275.354008 
L 831.238967 282.955408 
L 832.121399 275.354008 
L 833.003831 282.955408 
L 833.886263 282.955408 
L 834.768695 304.252888 
L 835.651127 292.258769 
L 836.533559 282.955408 
L 838.298424 282.955408 
L 839.180856 292.258769 
L 840.063288 304.252888 
L 840.94572 321.157649 
L 844.475449 321.157649 
L 845.357881 304.252888 
L 847.122745 304.252888 
L 848.005177 292.258769 
L 849.770042 292.258769 
L 850.652474 304.252888 
L 851.534906 304.252888 
L 852.417338 321.157649 
L 852.417704 361 
M 854.182102 361 
L 854.182203 350.056528 
L 855.064635 321.157649 
L 858.594363 321.157649 
L 859.476795 350.056528 
L 859.476896 361 
M 868.301016 361 
L 868.301117 350.056528 
L 869.183549 350.056528 
L 870.065981 321.157649 
L 872.713278 321.157649 
L 873.59571 350.056528 
L 874.478142 350.056528 
L 874.478243 361 
M 876.242906 361 
L 876.243006 350.056528 
L 880.655167 350.056528 
L 880.655268 361 
M 892.126684 361 
L 892.126785 350.056528 
L 895.656514 350.056528 
L 896.538946 321.157649 
L 897.421378 350.056528 
L 900.951106 350.056528 
L 900.951207 361 
M 909.775327 361 
L 909.775428 350.056528 
L 919.482182 350.056528 
L 919.482282 361 
L 919.482282 361 
" style="fill:none;stroke:#bfbf00;stroke-dasharray:1,3;stroke-dashoffset:0;stroke-width:3;"/>
   </g>
   <g id="patch_3">
    <path d="M 135 324 
L 135 36 
" style="fill:none;stroke:#000000;stroke-linecap:square;stroke-linejoin:miter;"/>
   </g>
   <g id="patch_4">
    <path d="M 972 324 
L 972 36 
" style="fill:none;stroke:#000000;stroke-linecap:square;stroke-linejoin:miter;"/>
   </g>
   <g id="patch_5">
    <path d="M 135 324 
L 972 324 
" style="fill:none;stroke:#000000;stroke-linecap:square;stroke-linejoin:miter;"/>
   </g>
   <g id="patch_6">
    <path d="M 135 36 
L 972 36 
" style="fill:none;stroke:#000000;stroke-linecap:square;stroke-linejoin:miter;"/>
   </g>
   <g id="matplotlib.axis_1">
    <g id="xtick_1">
     <g id="line2d_8">
      <defs>
       <path d="M 0 0 
L 0 -4 
" id="m347f5208eb" style="stroke:#000000;stroke-width:0.5;"/>
      </defs>
      <g>
       <use style="stroke:#000000;stroke-width:0.5;" x="135" xlink:href="#m347f5208eb" y="324"/>
      </g>
     </g>
     <g id="line2d_9">
      <defs>
       <path d="M 0 0 
L 0 4 
" id="mb57b01b35f" style="stroke:#000000;stroke-width:0.5;"/>
      </defs>
      <g>
       <use style="stroke:#000000;stroke-width:0.5;" x="135" xlink:href="#mb57b01b35f" y="36"/>
      </g>
     </g>
     <g id="text_1">
      <!-- 0 -->
      <defs>
       <path d="M 31.78125 66.40625 
Q 24.171875 66.40625 20.328125 58.90625 
Q 16.5 51.421875 16.5 36.375 
Q 16.5 21.390625 20.328125 13.890625 
Q 24.171875 6.390625 31.78125 6.390625 
Q 39.453125 6.390625 43.28125 13.890625 
Q 47.125 21.390625 47.125 36.375 
Q 47.125 51.421875 43.28125 58.90625 
Q 39.453125 66.40625 31.78125 66.40625 
z
M 31.78125 74.21875 
Q 44.046875 74.21875 50.515625 64.515625 
Q 56.984375 54.828125 56.984375 36.375 
Q 56.984375 17.96875 50.515625 8.265625 
Q 44.046875 -1.421875 31.78125 -1.421875 
Q 19.53125 -1.421875 13.0625 8.265625 
Q 6.59375 17.96875 6.59375 36.375 
Q 6.59375 54.828125 13.0625 64.515625 
Q 19.53125 74.21875 31.78125 74.21875 
z
" id="DejaVuSans-48"/>
      </defs>
      <g transform="translate(131.1825 337.118125)scale(0.12 -0.12)">
       <use xlink:href="#DejaVuSans-48"/>
      </g>
     </g>
    </g>
    <g id="xtick_2">
     <g id="line2d_10">
      <g>
       <use style="stroke:#000000;stroke-width:0.5;" x="344.25" xlink:href="#m347f5208eb" y="324"/>
      </g>
     </g>
     <g id="line2d_11">
      <g>
       <use style="stroke:#000000;stroke-width:0.5;" x="344.25" xlink:href="#mb57b01b35f" y="36"/>
      </g>
     </g>
     <g id="text_2">
      <!-- 50 -->
      <defs>
       <path d="M 10.796875 72.90625 
L 49.515625 72.90625 
L 49.515625 64.59375 
L 19.828125 64.59375 
L 19.828125 46.734375 
Q 21.96875 47.46875 24.109375 47.828125 
Q 26.265625 48.1875 28.421875 48.1875 
Q 40.625 48.1875 47.75 41.5 
Q 54.890625 34.8125 54.890625 23.390625 
Q 54.890625 11.625 47.5625 5.09375 
Q 40.234375 -1.421875 26.90625 -1.421875 
Q 22.3125 -1.421875 17.546875 -0.640625 
Q 12.796875 0.140625 7.71875 1.703125 
L 7.71875 11.625 
Q 12.109375 9.234375 16.796875 8.0625 
Q 21.484375 6.890625 26.703125 6.890625 
Q 35.15625 6.890625 40.078125 11.328125 
Q 45.015625 15.765625 45.015625 23.390625 
Q 45.015625 31 40.078125 35.4375 
Q 35.15625 39.890625 26.703125 39.890625 
Q 22.75 39.890625 18.8125 39.015625 
Q 14.890625 38.140625 10.796875 36.28125 
z
" id="DejaVuSans-53"/>
      </defs>
      <g transform="translate(336.615 337.118125)scale(0.12 -0.12)">
       <use xlink:href="#DejaVuSans-53"/>
       <use x="63.623047" xlink:href="#DejaVuSans-48"/>
      </g>
     </g>
    </g>
    <g id="xtick_3">
     <g id="line2d_12">
      <g>
       <use style="stroke:#000000;stroke-width:0.5;" x="553.5" xlink:href="#m347f5208eb" y="324"/>
      </g>
     </g>
     <g id="line2d_13">
      <g>
       <use style="stroke:#000000;stroke-width:0.5;" x="553.5" xlink:href="#mb57b01b35f" y="36"/>
      </g>
     </g>
     <g id="text_3">
      <!-- 100 -->
      <defs>
       <path d="M 12.40625 8.296875 
L 28.515625 8.296875 
L 28.515625 63.921875 
L 10.984375 60.40625 
L 10.984375 69.390625 
L 28.421875 72.90625 
L 38.28125 72.90625 
L 38.28125 8.296875 
L 54.390625 8.296875 
L 54.390625 0 
L 12.40625 0 
z
" id="DejaVuSans-49"/>
      </defs>
      <g transform="translate(542.0475 337.118125)scale(0.12 -0.12)">
       <use xlink:href="#DejaVuSans-49"/>
       <use x="63.623047" xlink:href="#DejaVuSans-48"/>
       <use x="127.246094" xlink:href="#DejaVuSans-48"/>
      </g>
     </g>
    </g>
    <g id="xtick_4">
     <g id="line2d_14">
      <g>
       <use style="stroke:#000000;stroke-width:0.5;" x="762.75" xlink:href="#m347f5208eb" y="324"/>
      </g>
     </g>
     <g id="line2d_15">
      <g>
       <use style="stroke:#000000;stroke-width:0.5;" x="762.75" xlink:href="#mb57b01b35f" y="36"/>
      </g>
     </g>
     <g id="text_4">
      <!-- 150 -->
      <g transform="translate(751.2975 337.118125)scale(0.12 -0.12)">
       <use xlink:href="#DejaVuSans-49"/>
       <use x="63.623047" xlink:href="#DejaVuSans-53"/>
       <use x="127.246094" xlink:href="#DejaVuSans-48"/>
      </g>
     </g>
    </g>
    <g id="xtick_5">
     <g id="line2d_16">
      <g>
       <use style="stroke:#000000;stroke-width:0.5;" x="972" xlink:href="#m347f5208eb" y="324"/>
      </g>
     </g>
     <g id="line2d_17">
      <g>
       <use style="stroke:#000000;stroke-width:0.5;" x="972" xlink:href="#mb57b01b35f" y="36"/>
      </g>
     </g>
     <g id="text_5">
      <!-- 200 -->
      <defs>
       <path d="M 19.1875 8.296875 
L 53.609375 8.296875 
L 53.609375 0 
L 7.328125 0 
L 7.328125 8.296875 
Q 12.9375 14.109375 22.625 23.890625 
Q 32.328125 33.6875 34.8125 36.53125 
Q 39.546875 41.84375 41.421875 45.53125 
Q 43.3125 49.21875 43.3125 52.78125 
Q 43.3125 58.59375 39.234375 62.25 
Q 35.15625 65.921875 28.609375 65.921875 
Q 23.96875 65.921875 18.8125 64.3125 
Q 13.671875 62.703125 7.8125 59.421875 
L 7.8125 69.390625 
Q 13.765625 71.78125 18.9375 73 
Q 24.125 74.21875 28.421875 74.21875 
Q 39.75 74.21875 46.484375 68.546875 
Q 53.21875 62.890625 53.21875 53.421875 
Q 53.21875 48.921875 51.53125 44.890625 
Q 49.859375 40.875 45.40625 35.40625 
Q 44.1875 33.984375 37.640625 27.21875 
Q 31.109375 20.453125 19.1875 8.296875 
z
" id="DejaVuSans-50"/>
      </defs>
      <g transform="translate(960.5475 337.118125)scale(0.12 -0.12)">
       <use xlink:href="#DejaVuSans-50"/>
       <use x="63.623047" xlink:href="#DejaVuSans-48"/>
       <use x="127.246094" xlink:href="#DejaVuSans-48"/>
      </g>
     </g>
    </g>
    <g id="text_6">
     <!-- Номер канала АЦП -->
     <defs>
      <path d="M 9.8125 72.90625 
L 19.671875 72.90625 
L 19.671875 43.015625 
L 55.515625 43.015625 
L 55.515625 72.90625 
L 65.375 72.90625 
L 65.375 0 
L 55.515625 0 
L 55.515625 34.71875 
L 19.671875 34.71875 
L 19.671875 0 
L 9.8125 0 
z
" id="DejaVuSans-1053"/>
      <path d="M 30.609375 48.390625 
Q 23.390625 48.390625 19.1875 42.75 
Q 14.984375 37.109375 14.984375 27.296875 
Q 14.984375 17.484375 19.15625 11.84375 
Q 23.34375 6.203125 30.609375 6.203125 
Q 37.796875 6.203125 41.984375 11.859375 
Q 46.1875 17.53125 46.1875 27.296875 
Q 46.1875 37.015625 41.984375 42.703125 
Q 37.796875 48.390625 30.609375 48.390625 
z
M 30.609375 56 
Q 42.328125 56 49.015625 48.375 
Q 55.71875 40.765625 55.71875 27.296875 
Q 55.71875 13.875 49.015625 6.21875 
Q 42.328125 -1.421875 30.609375 -1.421875 
Q 18.84375 -1.421875 12.171875 6.21875 
Q 5.515625 13.875 5.515625 27.296875 
Q 5.515625 40.765625 12.171875 48.375 
Q 18.84375 56 30.609375 56 
z
" id="DejaVuSans-1086"/>
      <path d="M 9.078125 54.6875 
L 22.21875 54.6875 
L 37.75 18.0625 
L 53.328125 54.6875 
L 66.359375 54.6875 
L 66.359375 0 
L 57.328125 0 
L 57.328125 46.09375 
L 42.234375 10.5 
L 33.25 10.5 
L 18.109375 46.09375 
L 18.109375 0 
L 9.078125 0 
z
" id="DejaVuSans-1084"/>
      <path d="M 56.203125 29.59375 
L 56.203125 25.203125 
L 14.890625 25.203125 
Q 15.484375 15.921875 20.484375 11.0625 
Q 25.484375 6.203125 34.421875 6.203125 
Q 39.59375 6.203125 44.453125 7.46875 
Q 49.3125 8.734375 54.109375 11.28125 
L 54.109375 2.78125 
Q 49.265625 0.734375 44.1875 -0.34375 
Q 39.109375 -1.421875 33.890625 -1.421875 
Q 20.796875 -1.421875 13.15625 6.1875 
Q 5.515625 13.8125 5.515625 26.8125 
Q 5.515625 40.234375 12.765625 48.109375 
Q 20.015625 56 32.328125 56 
Q 43.359375 56 49.78125 48.890625 
Q 56.203125 41.796875 56.203125 29.59375 
z
M 47.21875 32.234375 
Q 47.125 39.59375 43.09375 43.984375 
Q 39.0625 48.390625 32.421875 48.390625 
Q 24.90625 48.390625 20.390625 44.140625 
Q 15.875 39.890625 15.1875 32.171875 
z
" id="DejaVuSans-1077"/>
      <path d="M 18.109375 8.203125 
L 18.109375 -20.796875 
L 9.078125 -20.796875 
L 9.078125 54.6875 
L 18.109375 54.6875 
L 18.109375 46.390625 
Q 20.953125 51.265625 25.265625 53.625 
Q 29.59375 56 35.59375 56 
Q 45.5625 56 51.78125 48.09375 
Q 58.015625 40.1875 58.015625 27.296875 
Q 58.015625 14.40625 51.78125 6.484375 
Q 45.5625 -1.421875 35.59375 -1.421875 
Q 29.59375 -1.421875 25.265625 0.953125 
Q 20.953125 3.328125 18.109375 8.203125 
z
M 48.6875 27.296875 
Q 48.6875 37.203125 44.609375 42.84375 
Q 40.53125 48.484375 33.40625 48.484375 
Q 26.265625 48.484375 22.1875 42.84375 
Q 18.109375 37.203125 18.109375 27.296875 
Q 18.109375 17.390625 22.1875 11.75 
Q 26.265625 6.109375 33.40625 6.109375 
Q 40.53125 6.109375 44.609375 11.75 
Q 48.6875 17.390625 48.6875 27.296875 
z
" id="DejaVuSans-1088"/>
      <path id="DejaVuSans-32"/>
      <path d="M 9.078125 54.6875 
L 18.015625 54.6875 
L 18.015625 29 
L 43.359375 54.6875 
L 54.390625 54.6875 
L 33.5 33.546875 
L 57.078125 0 
L 47.015625 0 
L 27.640625 27.59375 
L 18.015625 17.828125 
L 18.015625 0 
L 9.078125 0 
z
" id="DejaVuSans-1082"/>
      <path d="M 34.28125 27.484375 
Q 23.390625 27.484375 19.1875 25 
Q 14.984375 22.515625 14.984375 16.5 
Q 14.984375 11.71875 18.140625 8.90625 
Q 21.296875 6.109375 26.703125 6.109375 
Q 34.1875 6.109375 38.703125 11.40625 
Q 43.21875 16.703125 43.21875 25.484375 
L 43.21875 27.484375 
z
M 52.203125 31.203125 
L 52.203125 0 
L 43.21875 0 
L 43.21875 8.296875 
Q 40.140625 3.328125 35.546875 0.953125 
Q 30.953125 -1.421875 24.3125 -1.421875 
Q 15.921875 -1.421875 10.953125 3.296875 
Q 6 8.015625 6 15.921875 
Q 6 25.140625 12.171875 29.828125 
Q 18.359375 34.515625 30.609375 34.515625 
L 43.21875 34.515625 
L 43.21875 35.40625 
Q 43.21875 41.609375 39.140625 45 
Q 35.0625 48.390625 27.6875 48.390625 
Q 23 48.390625 18.546875 47.265625 
Q 14.109375 46.140625 10.015625 43.890625 
L 10.015625 52.203125 
Q 14.9375 54.109375 19.578125 55.046875 
Q 24.21875 56 28.609375 56 
Q 40.484375 56 46.34375 49.84375 
Q 52.203125 43.703125 52.203125 31.203125 
z
" id="DejaVuSans-1072"/>
      <path d="M 9.078125 54.6875 
L 18.109375 54.6875 
L 18.109375 32.375 
L 47.265625 32.375 
L 47.265625 54.6875 
L 56.296875 54.6875 
L 56.296875 0 
L 47.265625 0 
L 47.265625 25.203125 
L 18.109375 25.203125 
L 18.109375 0 
L 9.078125 0 
z
" id="DejaVuSans-1085"/>
      <path d="M 3.71875 0 
L 3.71875 7.46875 
Q 12.59375 8.84375 15.328125 14.984375 
Q 18.65625 23.640625 18.65625 45.75 
L 18.65625 54.6875 
L 55.609375 54.6875 
L 55.609375 0 
L 46.625 0 
L 46.625 47.515625 
L 27.640625 47.515625 
L 27.640625 42.09375 
Q 27.640625 21 23.34375 11.53125 
Q 18.75 1.421875 3.71875 0 
z
" id="DejaVuSans-1083"/>
      <path d="M 34.1875 63.1875 
L 20.796875 26.90625 
L 47.609375 26.90625 
z
M 28.609375 72.90625 
L 39.796875 72.90625 
L 67.578125 0 
L 57.328125 0 
L 50.6875 18.703125 
L 17.828125 18.703125 
L 11.1875 0 
L 0.78125 0 
z
" id="DejaVuSans-1040"/>
      <path d="M 65.375 0 
L 9.8125 0 
L 9.8125 72.90625 
L 19.671875 72.90625 
L 19.671875 8.296875 
L 55.515625 8.296875 
L 55.515625 72.90625 
L 65.375 72.90625 
L 65.375 8.296875 
L 73.6875 8.296875 
L 73.6875 -15.671875 
L 65.375 -15.671875 
z
" id="DejaVuSans-1062"/>
      <path d="M 65.375 72.90625 
L 65.375 0 
L 55.515625 0 
L 55.515625 64.59375 
L 19.671875 64.59375 
L 19.671875 0 
L 9.8125 0 
L 9.8125 72.90625 
z
" id="DejaVuSans-1055"/>
     </defs>
     <g transform="translate(478.859766 356.011406)scale(0.15 -0.15)">
      <use xlink:href="#DejaVuSans-1053"/>
      <use x="75.195312" xlink:href="#DejaVuSans-1086"/>
      <use x="136.376953" xlink:href="#DejaVuSans-1084"/>
      <use x="211.816406" xlink:href="#DejaVuSans-1077"/>
      <use x="273.339844" xlink:href="#DejaVuSans-1088"/>
      <use x="336.816406" xlink:href="#DejaVuSans-32"/>
      <use x="368.603516" xlink:href="#DejaVuSans-1082"/>
      <use x="429.003906" xlink:href="#DejaVuSans-1072"/>
      <use x="490.283203" xlink:href="#DejaVuSans-1085"/>
      <use x="555.664062" xlink:href="#DejaVuSans-1072"/>
      <use x="616.943359" xlink:href="#DejaVuSans-1083"/>
      <use x="680.859375" xlink:href="#DejaVuSans-1072"/>
      <use x="742.138672" xlink:href="#DejaVuSans-32"/>
      <use x="773.925781" xlink:href="#DejaVuSans-1040"/>
      <use x="842.333984" xlink:href="#DejaVuSans-1062"/>
      <use x="919.970703" xlink:href="#DejaVuSans-1055"/>
     </g>
    </g>
   </g>
   <g id="matplotlib.axis_2">
    <g id="ytick_1">
     <g id="line2d_18">
      <defs>
       <path d="M 0 0 
L 4 0 
" id="m64d80dfd41" style="stroke:#000000;stroke-width:0.5;"/>
      </defs>
      <g>
       <use style="stroke:#000000;stroke-width:0.5;" x="135" xlink:href="#m64d80dfd41" y="324"/>
      </g>
     </g>
     <g id="line2d_19">
      <defs>
       <path d="M 0 0 
L -4 0 
" id="m84b50228d9" style="stroke:#000000;stroke-width:0.5;"/>
      </defs>
      <g>
       <use style="stroke:#000000;stroke-width:0.5;" x="972" xlink:href="#m84b50228d9" y="324"/>
      </g>
     </g>
     <g id="text_7">
      <!-- $\mathdefault{10^{0}}$ -->
      <g transform="translate(109.88 327.31125)scale(0.12 -0.12)">
       <use transform="translate(0 0.765625)" xlink:href="#DejaVuSans-49"/>
       <use transform="translate(63.623047 0.765625)" xlink:href="#DejaVuSans-48"/>
       <use transform="translate(128.203125 39.046875)scale(0.7)" xlink:href="#DejaVuSans-48"/>
      </g>
     </g>
    </g>
    <g id="ytick_2">
     <g id="line2d_20">
      <g>
       <use style="stroke:#000000;stroke-width:0.5;" x="135" xlink:href="#m64d80dfd41" y="228"/>
      </g>
     </g>
     <g id="line2d_21">
      <g>
       <use style="stroke:#000000;stroke-width:0.5;" x="972" xlink:href="#m84b50228d9" y="228"/>
      </g>
     </g>
     <g id="text_8">
      <!-- $\mathdefault{10^{1}}$ -->
      <g transform="translate(109.88 231.31125)scale(0.12 -0.12)">
       <use transform="translate(0 0.684375)" xlink:href="#DejaVuSans-49"/>
       <use transform="translate(63.623047 0.684375)" xlink:href="#DejaVuSans-48"/>
       <use transform="translate(128.203125 38.965625)scale(0.7)" xlink:href="#DejaVuSans-49"/>
      </g>
     </g>
    </g>
    <g id="ytick_3">
     <g id="line2d_22">
      <g>
       <use style="stroke:#000000;stroke-width:0.5;" x="135" xlink:href="#m64d80dfd41" y="132"/>
      </g>
     </g>
     <g id="line2d_23">
      <g>
       <use style="stroke:#000000;stroke-width:0.5;" x="972" xlink:href="#m84b50228d9" y="132"/>
      </g>
     </g>
     <g id="text_9">
      <!-- $\mathdefault{10^{2}}$ -->
      <g transform="translate(109.88 135.31125)scale(0.12 -0.12)">
       <use transform="translate(0 0.765625)" xlink:href="#DejaVuSans-49"/>
       <use transform="translate(63.623047 0.765625)" xlink:href="#DejaVuSans-48"/>
       <use transform="translate(128.203125 39.046875)scale(0.7)" xlink:href="#DejaVuSans-50"/>
      </g>
     </g>
    </g>
    <g id="ytick_4">
     <g id="line2d_24">
      <g>
       <use style="stroke:#000000;stroke-width:0.5;" x="135" xlink:href="#m64d80dfd41" y="36"/>
      </g>
     </g>
     <g id="line2d_25">
      <g>
       <use style="stroke:#000000;stroke-width:0.5;" x="972" xlink:href="#m84b50228d9" y="36"/>
      </g>
     </g>
     <g id="text_10">
      <!-- $\mathdefault{10^{3}}$ -->
      <defs>
       <path d="M 40.578125 39.3125 
Q 47.65625 37.796875 51.625 33 
Q 55.609375 28.21875 55.609375 21.1875 
Q 55.609375 10.40625 48.1875 4.484375 
Q 40.765625 -1.421875 27.09375 -1.421875 
Q 22.515625 -1.421875 17.65625 -0.515625 
Q 12.796875 0.390625 7.625 2.203125 
L 7.625 11.71875 
Q 11.71875 9.328125 16.59375 8.109375 
Q 21.484375 6.890625 26.8125 6.890625 
Q 36.078125 6.890625 40.9375 10.546875 
Q 45.796875 14.203125 45.796875 21.1875 
Q 45.796875 27.640625 41.28125 31.265625 
Q 36.765625 34.90625 28.71875 34.90625 
L 20.21875 34.90625 
L 20.21875 43.015625 
L 29.109375 43.015625 
Q 36.375 43.015625 40.234375 45.921875 
Q 44.09375 48.828125 44.09375 54.296875 
Q 44.09375 59.90625 40.109375 62.90625 
Q 36.140625 65.921875 28.71875 65.921875 
Q 24.65625 65.921875 20.015625 65.03125 
Q 15.375 64.15625 9.8125 62.3125 
L 9.8125 71.09375 
Q 15.4375 72.65625 20.34375 73.4375 
Q 25.25 74.21875 29.59375 74.21875 
Q 40.828125 74.21875 47.359375 69.109375 
Q 53.90625 64.015625 53.90625 55.328125 
Q 53.90625 49.265625 50.4375 45.09375 
Q 46.96875 40.921875 40.578125 39.3125 
z
" id="DejaVuSans-51"/>
      </defs>
      <g transform="translate(109.88 39.31125)scale(0.12 -0.12)">
       <use transform="translate(0 0.765625)" xlink:href="#DejaVuSans-49"/>
       <use transform="translate(63.623047 0.765625)" xlink:href="#DejaVuSans-48"/>
       <use transform="translate(128.203125 39.046875)scale(0.7)" xlink:href="#DejaVuSans-51"/>
      </g>
     </g>
    </g>
    <g id="ytick_5">
     <g id="line2d_26">
      <defs>
       <path d="M 0 0 
L 2 0 
" id="m33ab8da1d5" style="stroke:#000000;stroke-width:0.5;"/>
      </defs>
      <g>
       <use style="stroke:#000000;stroke-width:0.5;" x="135" xlink:href="#m33ab8da1d5" y="295.10112"/>
      </g>
     </g>
     <g id="line2d_27">
      <defs>
       <path d="M 0 0 
L -2 0 
" id="mf400d93429" style="stroke:#000000;stroke-width:0.5;"/>
      </defs>
      <g>
       <use style="stroke:#000000;stroke-width:0.5;" x="972" xlink:href="#mf400d93429" y="295.10112"/>
      </g>
     </g>
    </g>
    <g id="ytick_6">
     <g id="line2d_28">
      <g>
       <use style="stroke:#000000;stroke-width:0.5;" x="135" xlink:href="#m33ab8da1d5" y="278.19636"/>
      </g>
     </g>
     <g id="line2d_29">
      <g>
       <use style="stroke:#000000;stroke-width:0.5;" x="972" xlink:href="#mf400d93429" y="278.19636"/>
      </g>
     </g>
    </g>
    <g id="ytick_7">
     <g id="line2d_30">
      <g>
       <use style="stroke:#000000;stroke-width:0.5;" x="135" xlink:href="#m33ab8da1d5" y="266.202241"/>
      </g>
     </g>
     <g id="line2d_31">
      <g>
       <use style="stroke:#000000;stroke-width:0.5;" x="972" xlink:href="#mf400d93429" y="266.202241"/>
      </g>
     </g>
    </g>
    <g id="ytick_8">
     <g id="line2d_32">
      <g>
       <use style="stroke:#000000;stroke-width:0.5;" x="135" xlink:href="#m33ab8da1d5" y="256.89888"/>
      </g>
     </g>
     <g id="line2d_33">
      <g>
       <use style="stroke:#000000;stroke-width:0.5;" x="972" xlink:href="#mf400d93429" y="256.89888"/>
      </g>
     </g>
    </g>
    <g id="ytick_9">
     <g id="line2d_34">
      <g>
       <use style="stroke:#000000;stroke-width:0.5;" x="135" xlink:href="#m33ab8da1d5" y="249.29748"/>
      </g>
     </g>
     <g id="line2d_35">
      <g>
       <use style="stroke:#000000;stroke-width:0.5;" x="972" xlink:href="#mf400d93429" y="249.29748"/>
      </g>
     </g>
    </g>
    <g id="ytick_10">
     <g id="line2d_36">
      <g>
       <use style="stroke:#000000;stroke-width:0.5;" x="135" xlink:href="#m33ab8da1d5" y="242.870588"/>
      </g>
     </g>
     <g id="line2d_37">
      <g>
       <use style="stroke:#000000;stroke-width:0.5;" x="972" xlink:href="#mf400d93429" y="242.870588"/>
      </g>
     </g>
    </g>
    <g id="ytick_11">
     <g id="line2d_38">
      <g>
       <use style="stroke:#000000;stroke-width:0.5;" x="135" xlink:href="#m33ab8da1d5" y="237.303361"/>
      </g>
     </g>
     <g id="line2d_39">
      <g>
       <use style="stroke:#000000;stroke-width:0.5;" x="972" xlink:href="#mf400d93429" y="237.303361"/>
      </g>
     </g>
    </g>
    <g id="ytick_12">
     <g id="line2d_40">
      <g>
       <use style="stroke:#000000;stroke-width:0.5;" x="135" xlink:href="#m33ab8da1d5" y="232.392719"/>
      </g>
     </g>
     <g id="line2d_41">
      <g>
       <use style="stroke:#000000;stroke-width:0.5;" x="972" xlink:href="#mf400d93429" y="232.392719"/>
      </g>
     </g>
    </g>
    <g id="ytick_13">
     <g id="line2d_42">
      <g>
       <use style="stroke:#000000;stroke-width:0.5;" x="135" xlink:href="#m33ab8da1d5" y="199.10112"/>
      </g>
     </g>
     <g id="line2d_43">
      <g>
       <use style="stroke:#000000;stroke-width:0.5;" x="972" xlink:href="#mf400d93429" y="199.10112"/>
      </g>
     </g>
    </g>
    <g id="ytick_14">
     <g id="line2d_44">
      <g>
       <use style="stroke:#000000;stroke-width:0.5;" x="135" xlink:href="#m33ab8da1d5" y="182.19636"/>
      </g>
     </g>
     <g id="line2d_45">
      <g>
       <use style="stroke:#000000;stroke-width:0.5;" x="972" xlink:href="#mf400d93429" y="182.19636"/>
      </g>
     </g>
    </g>
    <g id="ytick_15">
     <g id="line2d_46">
      <g>
       <use style="stroke:#000000;stroke-width:0.5;" x="135" xlink:href="#m33ab8da1d5" y="170.202241"/>
      </g>
     </g>
     <g id="line2d_47">
      <g>
       <use style="stroke:#000000;stroke-width:0.5;" x="972" xlink:href="#mf400d93429" y="170.202241"/>
      </g>
     </g>
    </g>
    <g id="ytick_16">
     <g id="line2d_48">
      <g>
       <use style="stroke:#000000;stroke-width:0.5;" x="135" xlink:href="#m33ab8da1d5" y="160.89888"/>
      </g>
     </g>
     <g id="line2d_49">
      <g>
       <use style="stroke:#000000;stroke-width:0.5;" x="972" xlink:href="#mf400d93429" y="160.89888"/>
      </g>
     </g>
    </g>
    <g id="ytick_17">
     <g id="line2d_50">
      <g>
       <use style="stroke:#000000;stroke-width:0.5;" x="135" xlink:href="#m33ab8da1d5" y="153.29748"/>
      </g>
     </g>
     <g id="line2d_51">
      <g>
       <use style="stroke:#000000;stroke-width:0.5;" x="972" xlink:href="#mf400d93429" y="153.29748"/>
      </g>
     </g>
    </g>
    <g id="ytick_18">
     <g id="line2d_52">
      <g>
       <use style="stroke:#000000;stroke-width:0.5;" x="135" xlink:href="#m33ab8da1d5" y="146.870588"/>
      </g>
     </g>
     <g id="line2d_53">
      <g>
       <use style="stroke:#000000;stroke-width:0.5;" x="972" xlink:href="#mf400d93429" y="146.870588"/>
      </g>
     </g>
    </g>
    <g id="ytick_19">
     <g id="line2d_54">
      <g>
       <use style="stroke:#000000;stroke-width:0.5;" x="135" xlink:href="#m33ab8da1d5" y="141.303361"/>
      </g>
     </g>
     <g id="line2d_55">
      <g>
       <use style="stroke:#000000;stroke-width:0.5;" x="972" xlink:href="#mf400d93429" y="141.303361"/>
      </g>
     </g>
    </g>
    <g id="ytick_20">
     <g id="line2d_56">
      <g>
       <use style="stroke:#000000;stroke-width:0.5;" x="135" xlink:href="#m33ab8da1d5" y="136.392719"/>
      </g>
     </g>
     <g id="line2d_57">
      <g>
       <use style="stroke:#000000;stroke-width:0.5;" x="972" xlink:href="#mf400d93429" y="136.392719"/>
      </g>
     </g>
    </g>
    <g id="ytick_21">
     <g id="line2d_58">
      <g>
       <use style="stroke:#000000;stroke-width:0.5;" x="135" xlink:href="#m33ab8da1d5" y="103.10112"/>
      </g>
     </g>
     <g id="line2d_59">
      <g>
       <use style="stroke:#000000;stroke-width:0.5;" x="972" xlink:href="#mf400d93429" y="103.10112"/>
      </g>
     </g>
    </g>
    <g id="ytick_22">
     <g id="line2d_60">
      <g>
       <use style="stroke:#000000;stroke-width:0.5;" x="135" xlink:href="#m33ab8da1d5" y="86.19636"/>
      </g>
     </g>
     <g id="line2d_61">
      <g>
       <use style="stroke:#000000;stroke-width:0.5;" x="972" xlink:href="#mf400d93429" y="86.19636"/>
      </g>
     </g>
    </g>
    <g id="ytick_23">
     <g id="line2d_62">
      <g>
       <use style="stroke:#000000;stroke-width:0.5;" x="135" xlink:href="#m33ab8da1d5" y="74.202241"/>
      </g>
     </g>
     <g id="line2d_63">
      <g>
       <use style="stroke:#000000;stroke-width:0.5;" x="972" xlink:href="#mf400d93429" y="74.202241"/>
      </g>
     </g>
    </g>
    <g id="ytick_24">
     <g id="line2d_64">
      <g>
       <use style="stroke:#000000;stroke-width:0.5;" x="135" xlink:href="#m33ab8da1d5" y="64.89888"/>
      </g>
     </g>
     <g id="line2d_65">
      <g>
       <use style="stroke:#000000;stroke-width:0.5;" x="972" xlink:href="#mf400d93429" y="64.89888"/>
      </g>
     </g>
    </g>
    <g id="ytick_25">
     <g id="line2d_66">
      <g>
       <use style="stroke:#000000;stroke-width:0.5;" x="135" xlink:href="#m33ab8da1d5" y="57.29748"/>
      </g>
     </g>
     <g id="line2d_67">
      <g>
       <use style="stroke:#000000;stroke-width:0.5;" x="972" xlink:href="#mf400d93429" y="57.29748"/>
      </g>
     </g>
    </g>
    <g id="ytick_26">
     <g id="line2d_68">
      <g>
       <use style="stroke:#000000;stroke-width:0.5;" x="135" xlink:href="#m33ab8da1d5" y="50.870588"/>
      </g>
     </g>
     <g id="line2d_69">
      <g>
       <use style="stroke:#000000;stroke-width:0.5;" x="972" xlink:href="#mf400d93429" y="50.870588"/>
      </g>
     </g>
    </g>
    <g id="ytick_27">
     <g id="line2d_70">
      <g>
       <use style="stroke:#000000;stroke-width:0.5;" x="135" xlink:href="#m33ab8da1d5" y="45.303361"/>
      </g>
     </g>
     <g id="line2d_71">
      <g>
       <use style="stroke:#000000;stroke-width:0.5;" x="972" xlink:href="#mf400d93429" y="45.303361"/>
      </g>
     </g>
    </g>
    <g id="ytick_28">
     <g id="line2d_72">
      <g>
       <use style="stroke:#000000;stroke-width:0.5;" x="135" xlink:href="#m33ab8da1d5" y="40.392719"/>
      </g>
     </g>
     <g id="line2d_73">
      <g>
       <use style="stroke:#000000;stroke-width:0.5;" x="972" xlink:href="#mf400d93429" y="40.392719"/>
      </g>
     </g>
    </g>
    <g id="text_11">
     <!-- Количество импульсов -->
     <defs>
      <path d="M 9.8125 72.90625 
L 19.671875 72.90625 
L 19.671875 36.859375 
L 54.9375 72.90625 
L 67.578125 72.90625 
L 39.40625 44.09375 
L 69.046875 0 
L 58.296875 0 
L 33.015625 37.546875 
L 19.671875 23.921875 
L 19.671875 0 
L 9.8125 0 
z
" id="DejaVuSans-1050"/>
      <path d="M 55.90625 54.6875 
L 55.90625 0 
L 46.96875 0 
L 46.96875 43.890625 
L 20.609375 0 
L 9.078125 0 
L 9.078125 54.6875 
L 18.015625 54.6875 
L 18.015625 10.890625 
L 44.34375 54.6875 
z
" id="DejaVuSans-1080"/>
      <path d="M 41.015625 0 
L 41.015625 23 
L 24.265625 23 
Q 16.796875 23 11.8125 27.640625 
Q 7.328125 31.84375 7.328125 40.828125 
L 7.328125 54.6875 
L 16.3125 54.6875 
L 16.3125 41.65625 
Q 16.3125 35.9375 18.84375 33.0625 
Q 21.4375 30.171875 26.515625 30.171875 
L 41.015625 30.171875 
L 41.015625 54.6875 
L 50 54.6875 
L 50 0 
z
" id="DejaVuSans-1095"/>
      <path d="M 48.78125 52.59375 
L 48.78125 44.1875 
Q 44.96875 46.296875 41.140625 47.34375 
Q 37.3125 48.390625 33.40625 48.390625 
Q 24.65625 48.390625 19.8125 42.84375 
Q 14.984375 37.3125 14.984375 27.296875 
Q 14.984375 17.28125 19.8125 11.734375 
Q 24.65625 6.203125 33.40625 6.203125 
Q 37.3125 6.203125 41.140625 7.25 
Q 44.96875 8.296875 48.78125 10.40625 
L 48.78125 2.09375 
Q 45.015625 0.34375 40.984375 -0.53125 
Q 36.96875 -1.421875 32.421875 -1.421875 
Q 20.0625 -1.421875 12.78125 6.34375 
Q 5.515625 14.109375 5.515625 27.296875 
Q 5.515625 40.671875 12.859375 48.328125 
Q 20.21875 56 33.015625 56 
Q 37.15625 56 41.109375 55.140625 
Q 45.0625 54.296875 48.78125 52.59375 
z
" id="DejaVuSans-1089"/>
      <path d="M 2.9375 54.6875 
L 55.328125 54.6875 
L 55.328125 47.515625 
L 33.546875 47.515625 
L 33.546875 0 
L 24.703125 0 
L 24.703125 47.515625 
L 2.9375 47.515625 
z
" id="DejaVuSans-1090"/>
      <path d="M 18.0625 25.203125 
L 18.0625 7.171875 
L 30.859375 7.171875 
Q 37.015625 7.171875 40.234375 9.484375 
Q 43.453125 11.8125 43.453125 16.21875 
Q 43.453125 20.609375 40.234375 22.90625 
Q 37.015625 25.203125 30.859375 25.203125 
z
M 18.0625 47.515625 
L 18.0625 32.375 
L 29.890625 32.375 
Q 34.96875 32.375 38.1875 34.390625 
Q 41.40625 36.421875 41.40625 40.046875 
Q 41.40625 43.65625 38.1875 45.578125 
Q 34.96875 47.515625 29.890625 47.515625 
z
M 9.078125 54.6875 
L 30.46875 54.6875 
Q 40.09375 54.6875 45.265625 51.171875 
Q 50.4375 47.65625 50.4375 41.15625 
Q 50.4375 36.140625 47.796875 33.171875 
Q 45.171875 30.21875 39.984375 29.5 
Q 46.1875 28.328125 49.609375 24.609375 
Q 53.03125 20.90625 53.03125 15.328125 
Q 53.03125 8.015625 47.390625 4 
Q 41.75 0 31.296875 0 
L 9.078125 0 
z
" id="DejaVuSans-1074"/>
      <path d="M 56.296875 54.6875 
L 56.296875 0 
L 47.265625 0 
L 47.265625 47.515625 
L 18.109375 47.515625 
L 18.109375 0 
L 9.078125 0 
L 9.078125 54.6875 
z
" id="DejaVuSans-1087"/>
      <path d="M 32.171875 -5.078125 
Q 28.375 -14.84375 24.75 -17.8125 
Q 21.140625 -20.796875 15.09375 -20.796875 
L 7.90625 -20.796875 
L 7.90625 -13.28125 
L 13.1875 -13.28125 
Q 16.890625 -13.28125 18.9375 -11.515625 
Q 21 -9.765625 23.484375 -3.21875 
L 25.09375 0.875 
L 2.984375 54.6875 
L 12.5 54.6875 
L 29.59375 11.921875 
L 46.6875 54.6875 
L 56.203125 54.6875 
z
" id="DejaVuSans-1091"/>
      <path d="M 43.453125 16.21875 
Q 43.453125 20.609375 40.25 22.90625 
Q 37.0625 25.203125 30.90625 25.203125 
L 18.109375 25.203125 
L 18.109375 7.171875 
L 30.90625 7.171875 
Q 37.0625 7.171875 40.25 9.484375 
Q 43.453125 11.8125 43.453125 16.21875 
z
M 9.078125 54.6875 
L 18.109375 54.6875 
L 18.109375 32.375 
L 31.296875 32.375 
Q 41.75 32.375 47.390625 28.390625 
Q 53.03125 24.421875 53.03125 16.21875 
Q 53.03125 8.015625 47.390625 4 
Q 41.75 0 31.296875 0 
L 9.078125 0 
z
" id="DejaVuSans-1100"/>
     </defs>
     <g transform="translate(101.760469 270.734766)rotate(-90)scale(0.15 -0.15)">
      <use xlink:href="#DejaVuSans-1050"/>
      <use x="70.996094" xlink:href="#DejaVuSans-1086"/>
      <use x="132.177734" xlink:href="#DejaVuSans-1083"/>
      <use x="196.09375" xlink:href="#DejaVuSans-1080"/>
      <use x="261.083984" xlink:href="#DejaVuSans-1095"/>
      <use x="320.166016" xlink:href="#DejaVuSans-1077"/>
      <use x="381.689453" xlink:href="#DejaVuSans-1089"/>
      <use x="436.669922" xlink:href="#DejaVuSans-1090"/>
      <use x="494.921875" xlink:href="#DejaVuSans-1074"/>
      <use x="553.857422" xlink:href="#DejaVuSans-1086"/>
      <use x="615.039062" xlink:href="#DejaVuSans-32"/>
      <use x="646.826172" xlink:href="#DejaVuSans-1080"/>
      <use x="711.816406" xlink:href="#DejaVuSans-1084"/>
      <use x="787.255859" xlink:href="#DejaVuSans-1087"/>
      <use x="852.636719" xlink:href="#DejaVuSans-1091"/>
      <use x="911.816406" xlink:href="#DejaVuSans-1083"/>
      <use x="975.732422" xlink:href="#DejaVuSans-1100"/>
      <use x="1034.667969" xlink:href="#DejaVuSans-1089"/>
      <use x="1089.648438" xlink:href="#DejaVuSans-1086"/>
      <use x="1150.830078" xlink:href="#DejaVuSans-1074"/>
     </g>
    </g>
   </g>
   <g id="legend_1">
    <g id="patch_7">
     <path d="M 871.047 195.4755 
L 964.8 195.4755 
L 964.8 43.2 
L 871.047 43.2 
z
" style="fill:#ffffff;stroke:#000000;stroke-linejoin:miter;"/>
    </g>
    <g id="line2d_74">
     <path d="M 881.127 54.86175 
L 901.287 54.86175 
" style="fill:none;stroke:#0000ff;stroke-dasharray:1,3;stroke-dashoffset:0;stroke-width:3;"/>
    </g>
    <g id="line2d_75"/>
    <g id="text_12">
     <!-- 600 V -->
     <defs>
      <path d="M 33.015625 40.375 
Q 26.375 40.375 22.484375 35.828125 
Q 18.609375 31.296875 18.609375 23.390625 
Q 18.609375 15.53125 22.484375 10.953125 
Q 26.375 6.390625 33.015625 6.390625 
Q 39.65625 6.390625 43.53125 10.953125 
Q 47.40625 15.53125 47.40625 23.390625 
Q 47.40625 31.296875 43.53125 35.828125 
Q 39.65625 40.375 33.015625 40.375 
z
M 52.59375 71.296875 
L 52.59375 62.3125 
Q 48.875 64.0625 45.09375 64.984375 
Q 41.3125 65.921875 37.59375 65.921875 
Q 27.828125 65.921875 22.671875 59.328125 
Q 17.53125 52.734375 16.796875 39.40625 
Q 19.671875 43.65625 24.015625 45.921875 
Q 28.375 48.1875 33.59375 48.1875 
Q 44.578125 48.1875 50.953125 41.515625 
Q 57.328125 34.859375 57.328125 23.390625 
Q 57.328125 12.15625 50.6875 5.359375 
Q 44.046875 -1.421875 33.015625 -1.421875 
Q 20.359375 -1.421875 13.671875 8.265625 
Q 6.984375 17.96875 6.984375 36.375 
Q 6.984375 53.65625 15.1875 63.9375 
Q 23.390625 74.21875 37.203125 74.21875 
Q 40.921875 74.21875 44.703125 73.484375 
Q 48.484375 72.75 52.59375 71.296875 
z
" id="DejaVuSans-54"/>
      <path d="M 28.609375 0 
L 0.78125 72.90625 
L 11.078125 72.90625 
L 34.1875 11.53125 
L 57.328125 72.90625 
L 67.578125 72.90625 
L 39.796875 0 
z
" id="DejaVuSans-86"/>
     </defs>
     <g transform="translate(917.127 59.90175)scale(0.144 -0.144)">
      <use xlink:href="#DejaVuSans-54"/>
      <use x="63.623047" xlink:href="#DejaVuSans-48"/>
      <use x="127.246094" xlink:href="#DejaVuSans-48"/>
      <use x="190.869141" xlink:href="#DejaVuSans-32"/>
      <use x="222.65625" xlink:href="#DejaVuSans-86"/>
     </g>
    </g>
    <g id="line2d_76">
     <path d="M 881.127 75.99825 
L 901.287 75.99825 
" style="fill:none;stroke:#008000;stroke-dasharray:1,3;stroke-dashoffset:0;stroke-width:3;"/>
    </g>
    <g id="line2d_77"/>
    <g id="text_13">
     <!-- 650 V -->
     <g transform="translate(917.127 81.03825)scale(0.144 -0.144)">
      <use xlink:href="#DejaVuSans-54"/>
      <use x="63.623047" xlink:href="#DejaVuSans-53"/>
      <use x="127.246094" xlink:href="#DejaVuSans-48"/>
      <use x="190.869141" xlink:href="#DejaVuSans-32"/>
      <use x="222.65625" xlink:href="#DejaVuSans-86"/>
     </g>
    </g>
    <g id="line2d_78">
     <path d="M 881.127 97.13475 
L 901.287 97.13475 
" style="fill:none;stroke:#bf00bf;stroke-linecap:square;stroke-width:3;"/>
    </g>
    <g id="line2d_79"/>
    <g id="text_14">
     <!-- 700 V -->
     <defs>
      <path d="M 8.203125 72.90625 
L 55.078125 72.90625 
L 55.078125 68.703125 
L 28.609375 0 
L 18.3125 0 
L 43.21875 64.59375 
L 8.203125 64.59375 
z
" id="DejaVuSans-55"/>
     </defs>
     <g transform="translate(917.127 102.17475)scale(0.144 -0.144)">
      <use xlink:href="#DejaVuSans-55"/>
      <use x="63.623047" xlink:href="#DejaVuSans-48"/>
      <use x="127.246094" xlink:href="#DejaVuSans-48"/>
      <use x="190.869141" xlink:href="#DejaVuSans-32"/>
      <use x="222.65625" xlink:href="#DejaVuSans-86"/>
     </g>
    </g>
    <g id="line2d_80">
     <path d="M 881.127 118.27125 
L 901.287 118.27125 
" style="fill:none;stroke:#ff0000;stroke-dasharray:1,3;stroke-dashoffset:0;stroke-width:3;"/>
    </g>
    <g id="line2d_81"/>
    <g id="text_15">
     <!-- 750 V -->
     <g transform="translate(917.127 123.31125)scale(0.144 -0.144)">
      <use xlink:href="#DejaVuSans-55"/>
      <use x="63.623047" xlink:href="#DejaVuSans-53"/>
      <use x="127.246094" xlink:href="#DejaVuSans-48"/>
      <use x="190.869141" xlink:href="#DejaVuSans-32"/>
      <use x="222.65625" xlink:href="#DejaVuSans-86"/>
     </g>
    </g>
    <g id="line2d_82">
     <path d="M 881.127 139.40775 
L 901.287 139.40775 
" style="fill:none;stroke:#00bfbf;stroke-dasharray:1,3;stroke-dashoffset:0;stroke-width:3;"/>
    </g>
    <g id="line2d_83"/>
    <g id="text_16">
     <!-- 800 V -->
     <defs>
      <path d="M 31.78125 34.625 
Q 24.75 34.625 20.71875 30.859375 
Q 16.703125 27.09375 16.703125 20.515625 
Q 16.703125 13.921875 20.71875 10.15625 
Q 24.75 6.390625 31.78125 6.390625 
Q 38.8125 6.390625 42.859375 10.171875 
Q 46.921875 13.96875 46.921875 20.515625 
Q 46.921875 27.09375 42.890625 30.859375 
Q 38.875 34.625 31.78125 34.625 
z
M 21.921875 38.8125 
Q 15.578125 40.375 12.03125 44.71875 
Q 8.5 49.078125 8.5 55.328125 
Q 8.5 64.0625 14.71875 69.140625 
Q 20.953125 74.21875 31.78125 74.21875 
Q 42.671875 74.21875 48.875 69.140625 
Q 55.078125 64.0625 55.078125 55.328125 
Q 55.078125 49.078125 51.53125 44.71875 
Q 48 40.375 41.703125 38.8125 
Q 48.828125 37.15625 52.796875 32.3125 
Q 56.78125 27.484375 56.78125 20.515625 
Q 56.78125 9.90625 50.3125 4.234375 
Q 43.84375 -1.421875 31.78125 -1.421875 
Q 19.734375 -1.421875 13.25 4.234375 
Q 6.78125 9.90625 6.78125 20.515625 
Q 6.78125 27.484375 10.78125 32.3125 
Q 14.796875 37.15625 21.921875 38.8125 
z
M 18.3125 54.390625 
Q 18.3125 48.734375 21.84375 45.5625 
Q 25.390625 42.390625 31.78125 42.390625 
Q 38.140625 42.390625 41.71875 45.5625 
Q 45.3125 48.734375 45.3125 54.390625 
Q 45.3125 60.0625 41.71875 63.234375 
Q 38.140625 66.40625 31.78125 66.40625 
Q 25.390625 66.40625 21.84375 63.234375 
Q 18.3125 60.0625 18.3125 54.390625 
z
" id="DejaVuSans-56"/>
     </defs>
     <g transform="translate(917.127 144.44775)scale(0.144 -0.144)">
      <use xlink:href="#DejaVuSans-56"/>
      <use x="63.623047" xlink:href="#DejaVuSans-48"/>
      <use x="127.246094" xlink:href="#DejaVuSans-48"/>
      <use x="190.869141" xlink:href="#DejaVuSans-32"/>
      <use x="222.65625" xlink:href="#DejaVuSans-86"/>
     </g>
    </g>
    <g id="line2d_84">
     <path d="M 881.127 160.54425 
L 901.287 160.54425 
" style="fill:none;stroke:#bf00bf;stroke-dasharray:1,3;stroke-dashoffset:0;stroke-width:3;"/>
    </g>
    <g id="line2d_85"/>
    <g id="text_17">
     <!-- 850 V -->
     <g transform="translate(917.127 165.58425)scale(0.144 -0.144)">
      <use xlink:href="#DejaVuSans-56"/>
      <use x="63.623047" xlink:href="#DejaVuSans-53"/>
      <use x="127.246094" xlink:href="#DejaVuSans-48"/>
      <use x="190.869141" xlink:href="#DejaVuSans-32"/>
      <use x="222.65625" xlink:href="#DejaVuSans-86"/>
     </g>
    </g>
    <g id="line2d_86">
     <path d="M 881.127 181.68075 
L 901.287 181.68075 
" style="fill:none;stroke:#bfbf00;stroke-dasharray:1,3;stroke-dashoffset:0;stroke-width:3;"/>
    </g>
    <g id="line2d_87"/>
    <g id="text_18">
     <!-- 900 V -->
     <defs>
      <path d="M 10.984375 1.515625 
L 10.984375 10.5 
Q 14.703125 8.734375 18.5 7.8125 
Q 22.3125 6.890625 25.984375 6.890625 
Q 35.75 6.890625 40.890625 13.453125 
Q 46.046875 20.015625 46.78125 33.40625 
Q 43.953125 29.203125 39.59375 26.953125 
Q 35.25 24.703125 29.984375 24.703125 
Q 19.046875 24.703125 12.671875 31.3125 
Q 6.296875 37.9375 6.296875 49.421875 
Q 6.296875 60.640625 12.9375 67.421875 
Q 19.578125 74.21875 30.609375 74.21875 
Q 43.265625 74.21875 49.921875 64.515625 
Q 56.59375 54.828125 56.59375 36.375 
Q 56.59375 19.140625 48.40625 8.859375 
Q 40.234375 -1.421875 26.421875 -1.421875 
Q 22.703125 -1.421875 18.890625 -0.6875 
Q 15.09375 0.046875 10.984375 1.515625 
z
M 30.609375 32.421875 
Q 37.25 32.421875 41.125 36.953125 
Q 45.015625 41.5 45.015625 49.421875 
Q 45.015625 57.28125 41.125 61.84375 
Q 37.25 66.40625 30.609375 66.40625 
Q 23.96875 66.40625 20.09375 61.84375 
Q 16.21875 57.28125 16.21875 49.421875 
Q 16.21875 41.5 20.09375 36.953125 
Q 23.96875 32.421875 30.609375 32.421875 
z
" id="DejaVuSans-57"/>
     </defs>
     <g transform="translate(917.127 186.72075)scale(0.144 -0.144)">
      <use xlink:href="#DejaVuSans-57"/>
      <use x="63.623047" xlink:href="#DejaVuSans-48"/>
      <use x="127.246094" xlink:href="#DejaVuSans-48"/>
      <use x="190.869141" xlink:href="#DejaVuSans-32"/>
      <use x="222.65625" xlink:href="#DejaVuSans-86"/>
     </g>
    </g>
   </g>
  </g>
 </g>
 <defs>
  <clipPath id="p9cf2ca732a">
   <rect height="288" width="837" x="135" y="36"/>
  </clipPath>
 </defs>
</svg>
